<?xml version="1.0" encoding="utf-8"?>
<!-- Generator: Adobe Illustrator 19.0.0, SVG Export Plug-In . SVG Version: 6.00 Build 0)  -->
<svg version="1.1" xmlns="http://www.w3.org/2000/svg" xmlns:xlink="http://www.w3.org/1999/xlink" x="0px" y="0px"
	 viewBox="0 0 291 271" style="enable-background:new 0 0 291 271;" xml:space="preserve">
<style type="text/css">
	.st0{fill:none;}
	.st1{fill:url(#SVGID_1_);}
</style>
<g id="Layer_1">
	<polygon class="st0" points="143.5,127 121,177 165.8,177 	"/>
</g>
<g id="Layer_2">
	<g id="XMLID_1_">
		<g>
			<linearGradient id="SVGID_1_" gradientUnits="userSpaceOnUse" x1="76.7436" y1="264.3687" x2="223.7436" y2="101.3687">
				<stop  offset="0" style="stop-color:#00B4EB"/>
				<stop  offset="0.1295" style="stop-color:#04B1E9"/>
				<stop  offset="0.2706" style="stop-color:#12A9E3"/>
				<stop  offset="0.4171" style="stop-color:#279CD9"/>
				<stop  offset="0.5675" style="stop-color:#468ACC"/>
				<stop  offset="0.7209" style="stop-color:#6D72BA"/>
				<stop  offset="0.8743" style="stop-color:#9C55A5"/>
				<stop  offset="1" style="stop-color:#C93A91"/>
			</linearGradient>
			<path class="st1" d="M122.8,172.6h45l-22.3-50.5L122.8,172.6z M183.5,172.8l35.8-0.3L171,64.1l-17.8,39.8L183.5,172.8z
				 M208.5,228.3h35.3l-18-41h-35.5L208.5,228.3z M98,228.3h94.8l-18.8-41h-57.5L98,228.3z M266,243l-241-0.7l94.3-213.7l26,57.3
				L171,28L266,243z M47,228.3l35.3,0.3l55-125l-17.8-38.8L47,228.3z"/>
		</g>
		<g>
		</g>
	</g>
</g>
</svg>
