<?xml version="1.0" encoding="utf-8"?>
<!-- Generator: Adobe Illustrator 19.0.0, SVG Export Plug-In . SVG Version: 6.00 Build 0)  -->
<svg version="1.1" xmlns="http://www.w3.org/2000/svg" xmlns:xlink="http://www.w3.org/1999/xlink" x="0px" y="0px"
	 viewBox="0 0 291 271" style="enable-background:new 0 0 291 271;" xml:space="preserve">
<style type="text/css">
	.st0{fill:none;}
	.st1{fill:#FFFFFF;}
</style>
<g id="Layer_1">
	<polygon class="st0" points="143.5,127 121,177 165.8,177 	"/>
</g>
<g id="Layer_2">
	<g id="XMLID_3_">
		<g>
			<path class="st1" d="M171,28l95,215l-241-0.7l94.3-213.7l26,57.3L171,28z M243.8,228.3l-18-41h-35.5l18.3,41H243.8z M219.3,172.6
				L171,64.1l-17.8,39.8l30.3,69L219.3,172.6z M192.8,228.3l-18.8-41h-57.5l-18.5,41H192.8z M167.8,172.6l-22.3-50.5l-22.8,50.5
				H167.8z M137.3,103.6l-17.8-38.8L47,228.3l35.3,0.3L137.3,103.6z"/>
		</g>
		<g>
		</g>
	</g>
</g>
</svg>
