<?xml version="1.0" standalone="no"?>
<!DOCTYPE svg PUBLIC "-//W3C//DTD SVG 20010904//EN"
 "http://www.w3.org/TR/2001/REC-SVG-20010904/DTD/svg10.dtd">
<svg version="1.0" xmlns="http://www.w3.org/2000/svg"
 width="260.000000pt" height="260.000000pt" viewBox="0 0 260.000000 260.000000"
 preserveAspectRatio="xMidYMid meet">
<metadata>
Created by potrace 1.11, written by Peter Selinger 2001-2013
</metadata>
<g transform="translate(0.000000,260.000000) scale(0.100000,-0.100000)"
fill="#000000" stroke="none">
<path d="M1020 2292 c-28 -66 -300 -682 -332 -751 -11 -25 -35 -80 -53 -121
-18 -41 -42 -95 -53 -120 -17 -36 -154 -345 -281 -635 -13 -27 -29 -63 -36
-80 -8 -16 -33 -72 -55 -123 -22 -52 -49 -111 -59 -133 -17 -35 -18 -39 -3
-40 10 -1 533 -2 1163 -3 l1147 -1 -18 45 c-10 25 -29 70 -43 100 -13 30 -35
78 -47 105 -29 65 -326 736 -352 795 -11 25 -28 63 -38 85 -10 22 -80 180
-155 350 -75 171 -147 333 -159 360 -13 28 -41 89 -61 138 -21 48 -42 84 -45
80 -4 -5 -35 -73 -70 -153 -35 -80 -75 -172 -90 -205 -15 -33 -38 -85 -50
-115 -13 -30 -26 -58 -29 -62 -4 -4 -21 25 -38 65 -119 267 -203 461 -203 468
0 24 -18 3 -40 -49z m120 -481 c66 -148 80 -188 72 -205 -38 -82 -72 -158 -72
-161 0 -3 -15 -37 -34 -77 -19 -40 -46 -101 -60 -135 -14 -35 -37 -86 -50
-115 -13 -29 -77 -172 -141 -318 -64 -146 -122 -271 -129 -279 -6 -8 -10 -17
-8 -20 1 -3 -4 -22 -13 -41 l-16 -35 -169 0 c-94 0 -170 2 -170 5 0 5 141 327
199 452 11 26 21 49 21 51 0 3 18 43 39 89 21 45 78 173 126 283 48 110 102
232 120 270 17 39 67 152 111 252 43 100 82 178 85 175 4 -4 44 -90 89 -191z
m570 -171 c67 -151 129 -293 139 -315 10 -22 33 -74 51 -115 18 -41 44 -100
57 -130 13 -30 30 -69 38 -86 l13 -31 -170 0 -170 0 -33 71 c-18 39 -47 105
-65 146 -18 41 -44 100 -57 130 -14 30 -52 115 -84 189 -56 126 -58 135 -44
160 8 14 40 85 71 156 31 72 63 146 72 165 l15 35 23 -50 c12 -27 77 -174 144
-325z m-303 -432 c56 -128 103 -235 103 -238 0 -4 -97 -6 -215 -6 -118 0 -215
1 -215 2 0 2 55 128 109 246 17 37 47 106 67 153 20 47 39 83 42 80 3 -2 52
-109 109 -237z m233 -528 c35 -80 74 -167 87 -194 13 -28 23 -52 23 -55 0 -5
-900 -7 -907 -2 -2 1 32 80 78 179 16 35 29 65 29 67 0 10 64 141 71 146 5 3
132 5 282 5 l274 -1 63 -145z m496 -5 c37 -82 77 -173 89 -200 l23 -50 -168 0
c-93 0 -172 3 -176 8 -4 4 -23 42 -42 84 -45 103 -132 304 -132 306 0 1 76 2
170 2 l169 0 67 -150z"/>
</g>
</svg>
