<svg version="1" xmlns="http://www.w3.org/2000/svg" width="3549.333" height="3549.333" viewBox="0 0 2662.000000 2662.000000"><path d="M565.7 1281.2C292 1899.6 68 2405.8 68 2406.2c0 .5 569.3.8 1265.1.8 1101.4 0 1265-.2 1264.7-1.4-.8-3.9-995.4-2248.6-996.1-2248.3-.5.1-61 136-134.4 302C1393.8 625.2 1333.4 761 1333 761c-.4 0-60.8-135.8-134.2-301.7-73.5-166-134-301.9-134.5-302-.4-.2-224.8 505.6-498.6 1123.9zM1158 740.5c50.2 113.3 91.5 206.7 91.7 207.6.2.8-127.7 290.8-284.2 644.5-156.6 353.6-286.7 647.5-289.2 653.1l-4.5 10.3h-186c-176.7 0-186-.1-185.5-1.8.3-.9 171.6-388 380.7-860.2 209.1-472.2 380.8-860.1 381.7-862l1.4-3.5 1.3 3c.8 1.6 42.4 95.7 92.6 209zm697 360l251.9 569-185.6.3c-102.1.1-186-.1-186.4-.5-1.6-1.6-319-719.6-318.7-720.9.2-.7 41.9-95.4 92.8-210.4 58.2-131.4 92.8-208.5 93.3-207.7.5.6 114.2 257.2 252.7 570.2zm-404.2 301.2c64.4 145.7 117.4 265.6 117.8 266.5.6 1.7-11.1 1.8-235.6 1.8s-236.2-.1-235.6-1.8c2.2-5.9 235.1-531.2 235.6-531.2.3 0 53.3 119.1 117.8 264.7zm281.8 636.6l96.2 217.2-247.9.3c-136.4.1-359.4.1-495.8 0l-247.9-.3 96.2-217.2 96.1-217.3h607l96.1 217.3zm537.5-.3c52.7 119.1 95.9 216.8 95.9 217.2 0 .5-83.7.8-185.9.8h-185.9l-4.5-10.3c-2.5-5.6-45.5-102.9-95.7-216.2-50.2-113.3-91.5-206.6-91.7-207.3-.4-1 36.8-1.2 185.7-1l186.2.3 95.9 216.5z"/></svg>