<?xml version="1.0" standalone="no"?>
<!DOCTYPE svg PUBLIC "-//W3C//DTD SVG 20010904//EN"
 "http://www.w3.org/TR/2001/REC-SVG-20010904/DTD/svg10.dtd">
<svg version="1.0" xmlns="http://www.w3.org/2000/svg"
 width="1080.000000pt" height="1080.000000pt" viewBox="0 0 1080.000000 1080.000000"
 preserveAspectRatio="xMidYMid meet">
<metadata>
Created by potrace 1.11, written by Peter Selinger 2001-2013
</metadata>
<g transform="translate(0.000000,1080.000000) scale(0.100000,-0.100000)"
fill="#000000" stroke="none">
<path d="M0 8232 c0 -2013 3 -2571 12 -2580 10 -10 10 -17 0 -32 -9 -15 -12
-633 -12 -2820 l0 -2800 415 1 c240 1 413 5 409 10 -3 5 4 9 15 9 12 0 21 -4
21 -10 0 -16 2037 -14 2044 3 5 9 7 9 12 0 7 -17 3584 -19 3584 -3 0 13 37 13
45 0 10 -16 1132 -14 1139 3 5 9 7 9 12 0 4 -10 325 -13 1555 -13 l1549 0 0
2115 c0 1790 -2 2115 -14 2115 -7 0 -19 7 -26 15 -11 13 -8 15 14 15 l26 0 0
158 c0 110 -4 162 -12 170 -9 9 -9 15 0 24 9 9 12 712 12 3100 l0 3088 -5400
0 -5400 0 0 -2568z m4654 1083 c13 -27 38 -84 56 -125 18 -41 44 -100 57 -130
14 -30 41 -91 60 -135 20 -44 50 -111 68 -150 18 -38 47 -104 64 -145 18 -41
43 -99 57 -128 13 -29 24 -54 24 -57 0 -2 13 -32 29 -67 15 -35 47 -106 70
-158 23 -52 51 -113 61 -135 18 -40 51 -115 75 -170 15 -35 63 -141 92 -205
19 -42 21 -43 28 -20 7 23 20 52 111 248 19 40 34 75 34 78 0 3 11 29 24 57
14 29 41 90 62 137 20 47 50 114 66 150 33 72 46 101 184 415 53 121 111 252
129 290 18 39 67 150 110 248 43 98 83 176 88 174 5 -1 45 -84 88 -182 98
-221 133 -302 170 -383 16 -35 29 -66 29 -68 0 -3 11 -29 24 -57 49 -105 86
-187 86 -192 0 -2 15 -37 34 -77 18 -40 50 -111 71 -158 21 -47 52 -116 70
-155 18 -38 47 -104 65 -145 17 -41 43 -98 56 -127 13 -28 24 -54 24 -57 0 -3
13 -34 29 -68 26 -57 198 -442 316 -708 25 -58 52 -118 60 -135 7 -16 30 -68
50 -115 20 -47 58 -132 84 -190 27 -58 62 -136 79 -175 39 -90 260 -591 277
-630 60 -135 104 -222 118 -234 9 -7 17 -26 17 -41 0 -24 75 -206 160 -388 17
-35 30 -65 30 -68 0 -2 9 -23 19 -47 11 -23 38 -85 61 -137 23 -52 50 -113 60
-135 10 -22 51 -114 91 -205 39 -91 75 -169 79 -175 4 -5 11 -21 15 -35 4 -14
25 -62 46 -107 22 -45 39 -85 39 -90 0 -4 7 -21 15 -37 9 -16 38 -82 66 -145
28 -64 69 -156 91 -206 22 -49 46 -103 53 -120 22 -50 96 -217 120 -270 13
-28 44 -98 68 -155 144 -334 183 -415 205 -418 31 -5 45 -34 27 -59 -12 -17
-11 -25 6 -62 10 -24 19 -47 19 -52 0 -5 -1598 -9 -3835 -9 -2390 0 -3835 4
-3835 9 0 6 57 137 126 293 70 156 139 312 154 348 15 36 58 133 95 215 37 83
87 197 112 255 25 58 55 128 68 155 21 45 213 479 472 1065 52 118 103 233
113 255 10 22 37 83 60 135 23 52 52 118 66 147 13 28 24 54 24 57 0 2 16 38
35 79 19 42 37 88 41 104 4 15 15 39 26 52 10 13 18 28 18 34 0 5 13 37 29 71
16 33 80 176 141 316 61 140 122 278 134 305 13 28 164 367 335 755 172 388
325 732 340 765 16 33 57 125 91 205 34 80 78 179 97 220 20 41 51 111 70 155
19 44 45 103 59 132 13 28 24 54 24 56 0 3 15 38 34 79 19 40 48 106 66 147
17 40 47 106 66 147 19 41 34 76 34 78 0 3 16 39 35 80 19 42 35 80 35 84 0 4
5 13 12 20 9 9 18 -4 40 -56 16 -37 40 -89 52 -117z m4746 -1831 c0 -17 -24
-29 -40 -19 -8 5 -6 13 6 26 18 20 34 17 34 -7z m-8163 1 c3 -9 3 -19 -1 -22
-7 -7 -36 16 -36 28 0 15 30 10 37 -6z m6533 5 c0 -5 -7 -10 -15 -10 -8 0 -15
5 -15 10 0 6 7 10 15 10 8 0 15 -4 15 -10z m2570 -105 c10 -12 10 -18 0 -30
-26 -31 -59 -11 -40 25 13 24 23 25 40 5z m-10042 -19 c3 -13 -1 -17 -14 -14
-11 2 -20 11 -22 22 -3 13 1 17 14 14 11 -2 20 -11 22 -22z m8842 -50 c-13
-13 -35 7 -25 24 5 8 11 8 21 -1 10 -8 12 -15 4 -23z m-7650 14 c0 -5 -7 -10
-15 -10 -8 0 -15 5 -15 10 0 6 7 10 15 10 8 0 15 -4 15 -10z m-766 -115 c-1
-13 -51 -31 -60 -22 -4 4 -1 14 6 22 14 17 55 17 54 0z m9204 3 c17 -17 15
-28 -4 -28 -23 0 -55 20 -49 31 9 13 39 11 53 -3z m270 -105 c2 -8 -5 -13 -17
-13 -12 0 -21 6 -21 16 0 18 31 15 38 -3z m-9763 -3 c-3 -5 -10 -10 -16 -10
-5 0 -9 5 -9 10 0 6 7 10 16 10 8 0 12 -4 9 -10z m6983 -23 c2 -10 -3 -17 -12
-17 -18 0 -29 16 -21 31 9 14 29 6 33 -14z m-4208 -2 c0 -8 -7 -15 -15 -15 -8
0 -15 7 -15 15 0 8 7 15 15 15 8 0 15 -7 15 -15z m-1121 -141 c-21 -26 -33 1
-13 29 18 23 19 24 22 6 2 -11 -2 -27 -9 -35z m6442 -7 c-15 -15 -31 7 -31 42
l0 24 21 -27 c17 -21 19 -30 10 -39z m-7989 -49 c-15 -15 -26 -4 -18 18 5 13
9 15 18 6 9 -9 9 -15 0 -24z m9538 7 c0 -27 -9 -32 -27 -14 -14 14 -6 39 13
39 8 0 14 -10 14 -25z m-9241 -54 c17 -11 7 -41 -13 -41 -19 0 -29 17 -22 35
6 17 15 18 35 6z m8956 -16 c0 -13 -8 -21 -22 -23 -17 -3 -23 2 -23 16 0 10 3
22 7 26 13 13 38 1 38 -19z m495 0 c0 -8 -7 -15 -15 -15 -8 0 -15 7 -15 15 0
8 7 15 15 15 8 0 15 -7 15 -15z m-9960 -5 c0 -5 -2 -10 -4 -10 -3 0 -8 5 -11
10 -3 6 -1 10 4 10 6 0 11 -4 11 -10z m561 -81 c16 -8 18 -13 8 -25 -17 -20
-49 -18 -49 4 0 32 11 37 41 21z m8863 -5 c13 -33 -16 -44 -56 -23 -21 11 -21
12 -3 25 25 19 51 18 59 -2z m-1816 -186 c2 -13 -3 -18 -17 -18 -12 0 -21 2
-21 4 0 2 -3 12 -6 21 -5 13 -2 16 17 13 13 -1 25 -11 27 -20z m-5248 2 c0 -5
-5 -10 -11 -10 -5 0 -7 5 -4 10 3 6 8 10 11 10 2 0 4 -4 4 -10z m7139 -9 c8
-14 7 -22 -3 -30 -16 -14 -26 -4 -26 26 0 28 15 30 29 4z m-9029 -11 c0 -11
-7 -20 -15 -20 -8 0 -15 9 -15 20 0 11 7 20 15 20 8 0 15 -9 15 -20z m6794
-65 c3 -9 0 -15 -9 -15 -8 0 -15 7 -15 15 0 8 4 15 9 15 5 0 11 -7 15 -15z
m396 -1 c0 -8 -5 -12 -10 -9 -6 4 -8 11 -5 16 9 14 15 11 15 -7z m-4960 2 c0
-3 -4 -8 -10 -11 -5 -3 -10 -1 -10 4 0 6 5 11 10 11 6 0 10 -2 10 -4z m-2951
-48 c7 -18 4 -25 -13 -35 -35 -19 -62 17 -34 45 19 19 38 14 47 -10z m10496
-13 c0 -18 -5 -30 -12 -29 -7 1 -26 2 -43 3 -29 1 -44 21 -16 21 7 0 16 9 19
21 4 15 12 20 29 17 18 -2 23 -9 23 -33z m-2897 -26 c-2 -6 -8 -10 -13 -10 -5
0 -11 4 -13 10 -2 6 4 11 13 11 9 0 15 -5 13 -11z m3058 -36 c-3 -8 -2 -11 3
-8 5 3 12 1 16 -5 3 -6 -1 -13 -9 -16 -9 -3 -16 -12 -16 -20 0 -18 -29 -18
-36 0 -7 19 24 78 37 70 6 -3 8 -13 5 -21z m49 -3 c3 -6 -1 -7 -9 -4 -18 7
-21 14 -7 14 6 0 13 -4 16 -10z m-8767 -24 c3 -13 -1 -17 -14 -14 -11 2 -20
11 -22 22 -3 13 1 17 14 14 11 -2 20 -11 22 -22z m6598 13 c10 -17 -13 -36
-27 -22 -12 12 -4 33 11 33 5 0 12 -5 16 -11z m1609 -39 c3 -5 1 -10 -4 -10
-6 0 -11 5 -11 10 0 6 2 10 4 10 3 0 8 -4 11 -10z m-2032 -107 c8 -7 -11 -33
-24 -33 -5 0 -9 9 -9 20 0 19 20 27 33 13z m-456 -25 c-3 -8 -6 -5 -6 6 -1 11
2 17 5 13 3 -3 4 -12 1 -19z m-6102 -38 c3 -5 -1 -26 -10 -46 -20 -47 -40 -34
-30 20 7 34 27 48 40 26z m7365 -20 c7 -16 9 -38 5 -47 -6 -17 -7 -17 -21 1
-15 22 -19 76 -5 76 5 0 14 -13 21 -30z m-850 -61 c0 -5 -7 -9 -15 -9 -15 0
-20 12 -9 23 8 8 24 -1 24 -14z m-6682 -107 c2 -7 -3 -12 -12 -12 -9 0 -16 7
-16 16 0 17 22 14 28 -4z m867 8 c4 -6 1 -17 -5 -25 -9 -11 -17 -12 -32 -4
-15 8 -17 13 -7 25 14 16 35 18 44 4z m5983 -12 c4 -19 -35 -35 -50 -20 -6 6
-8 18 -4 27 8 21 50 16 54 -7z m842 2 c0 -11 -7 -20 -15 -20 -8 0 -15 9 -15
20 0 11 7 20 15 20 8 0 15 -9 15 -20z m-7926 -15 c25 0 32 -5 34 -22 2 -13 0
-23 -5 -24 -4 0 -29 -2 -55 -4 l-48 -4 0 33 c0 40 8 50 28 33 8 -6 29 -12 46
-12z m8201 -21 c0 -33 -3 -39 -20 -36 -11 2 -33 4 -50 5 -23 2 -31 7 -33 26
-4 28 14 42 44 35 12 -3 25 -1 29 6 14 22 30 3 30 -36z m-7722 -17 c3 -8 1
-20 -3 -28 -12 -18 7 -39 35 -39 45 0 41 -35 -5 -45 -65 -14 -120 50 -90 106
12 22 55 26 63 6z m7235 1 c7 -7 12 -27 12 -44 0 -59 -77 -95 -126 -60 -22 17
-12 33 26 38 20 2 25 9 26 33 1 17 2 33 3 38 2 11 46 8 59 -5z m-668 -8 c0 -5
-4 -10 -10 -10 -5 0 -10 5 -10 10 0 6 5 10 10 10 6 0 10 -4 10 -10z m-8142
-43 c3 -14 -1 -18 -20 -15 -12 2 -24 11 -26 21 -3 14 1 18 20 15 12 -2 24 -11
26 -21z m10377 3 c0 -9 -11 -16 -27 -18 -27 -3 -38 14 -21 32 12 12 48 2 48
-14z m-631 -96 c20 -8 21 -50 1 -58 -34 -13 -66 24 -44 50 13 16 20 17 43 8z
m-9129 -29 c0 -23 -34 -33 -45 -14 -13 20 1 40 24 37 13 -2 21 -10 21 -23z
m-307 -18 c3 -22 -1 -27 -18 -27 -23 0 -35 22 -26 46 10 25 41 12 44 -19z
m9750 1 c-2 -25 -8 -33 -22 -33 -10 0 -23 7 -29 16 -15 24 -1 49 28 49 24 0
26 -3 23 -32z m-7738 1 c0 -5 -10 -9 -21 -9 -18 0 -19 2 -9 15 12 15 30 12 30
-6z m5719 7 c9 -10 9 -16 1 -21 -12 -7 -40 11 -40 26 0 14 26 10 39 -5z
m-5389 -27 c0 -5 -7 -9 -15 -9 -15 0 -20 12 -9 23 8 8 24 -1 24 -14z m7841
-25 c10 -13 10 -17 -2 -25 -30 -19 -57 -3 -45 26 7 20 30 19 47 -1z m-7911 -4
c0 -27 -32 -70 -51 -70 -30 0 -22 51 11 67 31 16 40 16 40 3z m8018 -37 c3
-18 -1 -23 -20 -23 -31 0 -63 23 -54 39 5 7 22 11 39 9 24 -2 33 -8 35 -25z
m-9134 -19 c19 -18 12 -34 -14 -34 -25 0 -35 17 -20 35 15 18 15 18 34 -1z
m7434 -13 c-4 -20 -36 -27 -52 -11 -8 8 -6 15 7 25 23 17 49 9 45 -14z m322
-81 c0 -5 -4 -10 -10 -10 -5 0 -10 5 -10 10 0 6 5 10 10 10 6 0 10 -4 10 -10z
m-7863 -46 c2 -7 -6 -10 -23 -6 -23 4 -25 2 -19 -17 4 -15 2 -21 -9 -21 -22 0
-28 17 -16 40 12 23 60 25 67 4z m7679 -8 c8 -32 -3 -48 -26 -41 -12 4 -22 0
-28 -11 -14 -26 -32 -7 -28 29 3 18 5 35 5 40 1 4 17 7 36 7 28 0 36 -4 41
-24z m-7672 -32 c8 -22 8 -24 -8 -24 -15 0 -28 24 -19 34 11 10 21 7 27 -10z
m-73 -47 c-13 -13 -26 -3 -16 12 3 6 11 8 17 5 6 -4 6 -10 -1 -17z m7757 6
c-4 -22 -22 -20 -26 1 -2 10 3 16 13 16 10 0 15 -7 13 -17z m-7608 -97 c0 -17
-7 -25 -24 -28 -14 -3 -31 -1 -38 4 -10 6 -8 13 11 28 31 27 51 25 51 -4z
m7491 5 c21 -17 22 -20 7 -26 -28 -11 -53 -1 -56 23 -4 28 17 29 49 3z m-7917
1 c6 -11 -4 -24 -32 -40 -36 -20 -48 -3 -16 24 31 25 40 28 48 16z m9134 -4
c27 -27 3 -66 -32 -52 -22 9 -27 32 -10 49 19 18 26 19 42 3z m-9933 -23 c0
-22 -31 -33 -47 -17 -17 17 -1 44 24 40 15 -2 23 -10 23 -23z m623 -7 c-2 -25
-8 -34 -25 -36 -17 -3 -23 2 -23 16 0 34 11 52 32 52 16 0 19 -6 16 -32z
m8492 22 c0 -5 -4 -10 -10 -10 -5 0 -10 5 -10 10 0 6 5 10 10 10 6 0 10 -4 10
-10z m194 -12 c10 -40 7 -50 -16 -46 -23 3 -34 28 -24 54 8 22 33 17 40 -8z
m814 4 c2 -7 -6 -12 -17 -12 -21 0 -27 11 -14 24 9 9 26 2 31 -12z m-10328 -2
c0 -5 -4 -10 -10 -10 -5 0 -10 5 -10 10 0 6 5 10 10 10 6 0 10 -4 10 -10z
m1873 -26 c11 -11 -5 -34 -24 -34 -12 0 -19 7 -19 20 0 19 28 28 43 14z m6589
-26 c-9 -9 -15 -9 -24 0 -10 10 -10 15 2 22 9 6 19 5 24 0 7 -7 6 -14 -2 -22z
m-7374 -30 c-6 -18 -28 -21 -28 -4 0 9 7 16 16 16 9 0 14 -5 12 -12z m8152 -3
c0 -8 -7 -15 -15 -15 -8 0 -15 7 -15 15 0 8 7 15 15 15 8 0 15 -7 15 -15z
m-8965 -115 c11 -17 -5 -32 -21 -19 -7 6 -11 15 -8 20 7 12 21 11 29 -1z
m9783 -7 c-5 -26 -38 -29 -38 -4 0 15 6 21 21 21 14 0 19 -5 17 -17z m-9270
-74 c12 -19 11 -19 -8 -9 -11 6 -20 15 -20 20 0 17 15 11 28 -11z m8752 11 c0
-5 -9 -14 -20 -20 -19 -10 -20 -10 -8 9 13 22 28 28 28 11z m948 -89 c2 -12
10 -25 18 -28 17 -6 19 -33 1 -33 -13 0 -67 56 -67 70 0 10 21 19 35 16 6 -1
11 -13 13 -25z m-1943 -19 c7 -19 -20 -43 -41 -35 -17 6 -19 50 -1 56 18 6 35
-2 42 -21z m-6737 -9 c3 -19 -1 -23 -22 -23 -29 0 -39 11 -30 35 10 24 48 15
52 -12z m-653 -49 c22 -23 5 -37 -28 -25 -29 11 -35 26 -14 34 20 9 25 8 42
-9z m8029 10 c24 -9 19 -23 -11 -35 -33 -12 -50 2 -28 25 19 18 18 18 39 10z
m-8336 -63 c3 -8 -1 -12 -9 -9 -7 2 -15 10 -17 17 -3 8 1 12 9 9 7 -2 15 -10
17 -17z m-487 -40 c-12 -22 -41 -29 -41 -9 0 6 8 20 17 30 21 24 39 8 24 -21z
m9611 14 c8 -18 8 -29 1 -36 -13 -13 -43 15 -43 42 0 28 28 23 42 -6z m-8102
-50 c10 -12 10 -18 0 -30 -16 -20 -36 -19 -44 1 -6 16 9 44 24 44 4 0 13 -7
20 -15z m6603 -7 c6 -19 -3 -38 -18 -38 -17 0 -38 27 -30 40 9 14 42 13 48 -2z
m-7263 -24 c0 -8 -5 -12 -10 -9 -6 4 -8 11 -5 16 9 14 15 11 15 -7z m-102 -11
c-2 -10 -10 -18 -18 -18 -8 0 -16 8 -18 18 -2 12 3 17 18 17 15 0 20 -5 18
-17z m8122 3 c0 -19 -27 -28 -33 -11 -7 15 1 25 20 25 7 0 13 -6 13 -14z
m-7970 -109 c0 -20 -30 -58 -41 -52 -13 9 -11 39 3 53 16 16 38 15 38 -1z
m7818 1 c15 -15 16 -48 1 -48 -14 0 -38 30 -39 48 0 15 22 16 38 0z m-8154
-18 c16 -6 26 -17 26 -30 0 -26 -27 -37 -51 -22 -10 7 -28 12 -39 12 -24 0
-25 8 -3 32 18 21 31 22 67 8z m8518 -7 c24 -22 23 -33 -5 -33 -13 0 -28 -5
-34 -11 -16 -16 -53 -1 -53 22 0 34 62 50 92 22z m728 -24 c0 -5 -7 -9 -15 -9
-15 0 -20 12 -9 23 8 8 24 -1 24 -14z m-10010 7 c0 -11 -19 -15 -25 -6 -3 5 1
10 9 10 9 0 16 -2 16 -4z m1970 -14 c0 -19 -18 -42 -32 -42 -12 0 -9 35 4 48
17 17 28 15 28 -6z m-73 -49 c4 -12 -23 -43 -38 -43 -20 0 -22 33 -4 47 21 14
37 13 42 -4z m-1692 -13 c3 -5 1 -10 -4 -10 -6 0 -11 5 -11 10 0 6 2 10 4 10
3 0 8 -4 11 -10z m9595 1 c0 -14 -18 -23 -30 -16 -6 4 -8 11 -5 16 8 12 35 12
35 0z m-9180 -11 c0 -5 -7 -10 -15 -10 -8 0 -15 5 -15 10 0 6 7 10 15 10 8 0
15 -4 15 -10z m8770 0 c0 -5 -7 -10 -15 -10 -8 0 -15 5 -15 10 0 6 7 10 15 10
8 0 15 -4 15 -10z m-8716 -26 c21 -8 20 -30 -1 -38 -21 -8 -38 8 -30 28 7 18
9 18 31 10z m8661 -20 c0 -10 -8 -20 -18 -22 -22 -4 -35 27 -16 39 20 12 34 5
34 -17z m1043 -7 c3 -15 -2 -18 -25 -15 -17 2 -29 10 -31 21 -3 15 2 18 25 15
17 -2 29 -10 31 -21z m-10168 -7 c0 -5 -4 -10 -10 -10 -5 0 -10 5 -10 10 0 6
5 10 10 10 6 0 10 -4 10 -10z m9588 -8 c2 -7 -3 -12 -12 -12 -9 0 -16 7 -16
16 0 17 22 14 28 -4z m-8510 -50 c2 -7 -3 -12 -12 -12 -9 0 -16 7 -16 16 0 17
22 14 28 -4z m7440 1 c2 -8 -5 -13 -17 -13 -12 0 -21 6 -21 16 0 18 31 15 38
-3z m1167 -23 c0 -27 -22 -39 -31 -16 -8 22 3 49 19 43 6 -2 12 -14 12 -27z
m-9780 0 c0 -8 -8 -16 -17 -18 -13 -2 -18 3 -18 18 0 15 5 20 18 18 9 -2 17
-10 17 -18z m9865 -94 c0 -3 -4 -8 -10 -11 -5 -3 -10 -1 -10 4 0 6 5 11 10 11
6 0 10 -2 10 -4z m-9790 -44 c0 -24 -1 -25 -16 -10 -10 9 -14 24 -10 33 9 23
26 9 26 -23z m9630 14 c0 -8 -7 -19 -15 -26 -13 -10 -15 -9 -15 12 0 14 3 28
6 31 9 9 24 -2 24 -17z m-8046 -162 c8 -21 -11 -44 -36 -44 -24 0 -34 26 -18
45 16 20 46 19 54 -1z m-1709 -89 c0 -5 -10 -11 -22 -13 -16 -2 -23 2 -23 13
0 11 7 15 23 13 12 -2 22 -7 22 -13z m9895 0 c0 -16 -35 -21 -44 -6 -8 12 4
21 26 21 10 0 18 -7 18 -15z m-10107 -1 c9 -10 -43 -104 -58 -104 -22 0 -28
20 -12 38 9 9 20 29 26 45 10 25 30 35 44 21z m10326 -37 c24 -50 26 -67 7
-67 -14 0 -68 95 -58 104 14 15 32 2 51 -37z m-8485 -13 c9 -8 16 -19 16 -23
0 -16 -40 -43 -55 -38 -18 7 -20 48 -3 65 16 16 23 15 42 -4z m8661 -768 c0
-31 -30 -43 -54 -22 -28 25 -16 48 23 44 23 -2 31 -8 31 -22z m-9210 -236 c9
-15 -4 -47 -22 -54 -26 -10 -47 17 -34 43 12 22 45 28 56 11z m3635 -325 c0
-6 -38 -45 -44 -45 -2 0 1 11 7 25 10 21 37 36 37 20z m457 -20 c14 -30 9 -31
-17 -5 -23 23 -25 30 -7 30 6 0 17 -11 24 -25z m-1949 -62 c-4 -22 -22 -20
-26 1 -2 10 3 16 13 16 10 0 15 -7 13 -17z m1626 -31 c8 -13 -11 -35 -23 -28
-16 10 -14 36 3 36 8 0 17 -4 20 -8z m186 -6 c0 -21 -21 -31 -30 -15 -5 7 -6
17 -4 21 9 14 34 9 34 -6z m-600 0 c0 -3 -4 -8 -10 -11 -5 -3 -10 -1 -10 4 0
6 5 11 10 11 6 0 10 -2 10 -4z m1010 0 c0 -11 -19 -15 -25 -6 -3 5 1 10 9 10
9 0 16 -2 16 -4z m-1622 -134 c13 -13 17 -29 14 -65 -4 -42 -6 -46 -23 -37
-23 13 -35 35 -44 83 -7 33 -5 37 14 37 11 0 29 -8 39 -18z m-598 -2 c0 -5 -7
-10 -15 -10 -8 0 -15 5 -15 10 0 6 7 10 15 10 8 0 15 -4 15 -10z m2475 -210
c3 -5 1 -10 -4 -10 -6 0 -11 5 -11 10 0 6 2 10 4 10 3 0 8 -4 11 -10z m-2680
-60 c0 -22 -29 -18 -33 3 -3 14 1 18 15 15 10 -2 18 -10 18 -18z m395 5 c0
-10 -11 -15 -35 -15 -56 0 -41 25 18 29 9 0 17 -6 17 -14z m3453 1 c7 -17 -22
-31 -36 -17 -5 5 -6 14 -3 20 10 16 33 14 39 -3z m-3184 -45 c7 -5 9 -11 4
-14 -13 -8 -93 4 -93 14 0 12 71 11 89 0z m4261 -10 c15 -29 12 -49 -11 -72
-20 -20 -22 -20 -40 -3 -21 19 -25 64 -7 82 18 18 46 14 58 -7z m-4700 -11 c0
-5 -5 -10 -11 -10 -5 0 -7 5 -4 10 3 6 8 10 11 10 2 0 4 -4 4 -10z m-80 -10
c0 -5 -9 -10 -21 -10 -11 0 -17 5 -14 10 3 6 13 10 21 10 8 0 14 -4 14 -10z
m528 -16 c7 8 42 -13 42 -24 0 -11 -111 -13 -147 -4 -55 15 3 45 61 32 21 -5
41 -6 44 -4z m-213 -19 c0 -5 -15 -11 -32 -13 -32 -3 -45 11 -20 22 19 8 52 2
52 -9z m1129 -16 c-8 -14 -34 -11 -34 4 0 8 3 17 7 20 9 9 34 -13 27 -24z
m667 -2 c-5 -5 -17 -7 -26 -3 -14 5 -15 9 -5 21 10 12 16 13 27 4 9 -8 10 -16
4 -22z m-1897 8 c-27 -20 -51 -20 -34 0 7 8 22 15 33 15 20 0 20 0 1 -15z
m-59 -5 c-3 -5 -13 -10 -21 -10 -8 0 -12 5 -9 10 3 6 13 10 21 10 8 0 12 -4 9
-10z m-202 -15 c1 -5 -11 -12 -27 -13 -27 -3 -28 -2 -16 13 14 17 40 17 43 0z
m1085 -23 c2 -7 -6 -12 -17 -12 -21 0 -27 11 -14 24 9 9 26 2 31 -12z m1478 7
c10 -17 -13 -36 -27 -22 -12 12 -4 33 11 33 5 0 12 -5 16 -11z m-2211 -9 c3
-5 1 -10 -4 -10 -6 0 -11 5 -11 10 0 6 2 10 4 10 3 0 8 -4 11 -10z m170 0 c3
-5 -3 -10 -15 -10 -12 0 -18 5 -15 10 3 6 10 10 15 10 5 0 12 -4 15 -10z
m-265 -15 c0 -8 -4 -15 -10 -15 -5 0 -10 7 -10 15 0 8 5 15 10 15 6 0 10 -7
10 -15z m-130 -4 c0 -6 -5 -13 -10 -16 -15 -9 -43 3 -35 15 8 13 45 13 45 1z
m-150 -21 c0 -5 -7 -10 -15 -10 -8 0 -15 5 -15 10 0 6 7 10 15 10 8 0 15 -4
15 -10z m535 0 c3 -5 15 -10 26 -10 10 0 19 -4 19 -9 0 -13 -65 -21 -97 -12
l-28 8 30 16 c36 19 42 20 50 7z m-208 -26 c8 -21 -15 -34 -41 -25 -27 10 -32
28 -9 34 34 9 44 7 50 -9z m-84 -9 c1 -5 -16 -11 -37 -13 -36 -3 -38 -2 -26
13 14 17 59 17 63 0z m4914 -17 c-3 -7 -5 -2 -5 12 0 14 2 19 5 13 2 -7 2 -19
0 -25z m-5062 13 c7 -13 -33 -34 -51 -27 -8 3 -14 12 -14 21 0 17 55 22 65 6z
m-105 -16 c0 -8 -4 -15 -9 -15 -13 0 -22 16 -14 24 11 11 23 6 23 -9z m560
-26 c0 -5 -9 -9 -20 -9 -19 0 -26 11 -14 23 8 8 34 -3 34 -14z m4827 -11 c-3
-7 -5 -2 -5 12 0 14 2 19 5 13 2 -7 2 -19 0 -25z m-4989 5 c2 -8 -6 -13 -22
-13 -25 0 -33 10 -19 24 10 10 36 3 41 -11z m4707 -99 c5 -77 3 -114 -4 -118
-8 -5 -11 29 -11 115 0 67 2 120 4 118 2 -2 7 -54 11 -115z m143 59 c2 -32 3
-65 4 -73 4 -42 -3 -100 -12 -100 -6 0 -10 45 -10 115 0 117 15 163 18 58z
m-231 -35 c-2 -18 -4 -6 -4 27 0 33 2 48 4 33 2 -15 2 -42 0 -60z m-3157 44
c0 -27 -1 -27 -77 -30 -42 -1 -78 -4 -81 -7 -3 -2 1 -11 7 -19 10 -11 7 -17
-11 -30 -22 -16 -24 -15 -37 14 -10 21 -22 30 -38 30 -19 0 -23 5 -23 30 0 29
2 30 40 28 28 -2 42 -8 46 -20 8 -25 24 -22 24 5 0 21 4 22 75 24 l75 2 0 -27z
m3017 -64 c-2 -18 -4 -6 -4 27 0 33 2 48 4 33 2 -15 2 -42 0 -60z m512 -65
c-5 -37 -6 -25 -6 47 0 72 1 84 6 48 4 -27 4 -69 0 -95z m-584 17 c0 -79 -4
-111 -12 -115 -18 -6 -18 196 -1 213 7 7 12 12 13 12 0 0 0 -49 0 -110z
m-2815 -30 c0 -68 -23 -95 -68 -79 -31 11 -32 13 -32 70 l0 59 50 0 50 0 0
-50z m3027 28 c-3 -8 -6 -5 -6 6 -1 11 2 17 5 13 3 -3 4 -12 1 -19z m-6901
-14 c-17 -16 -36 -19 -36 -4 0 6 7 10 15 10 8 0 15 5 15 11 0 5 5 7 10 4 6 -4
5 -12 -4 -21z m3474 12 c0 -21 30 -76 43 -77 7 -1 32 -1 56 1 29 1 41 -2 37
-9 -5 -7 -43 -11 -101 -11 -111 0 -125 -4 -125 -37 0 -28 -25 -57 -40 -48 -11
7 -14 126 -4 163 4 12 10 22 14 22 5 0 6 -9 3 -20 -3 -11 0 -20 6 -20 8 0 7
-6 -1 -20 -11 -17 -10 -22 1 -30 19 -11 50 5 53 28 1 9 2 24 4 32 1 8 2 20 3
25 2 16 51 17 51 1z m-3612 -14 c6 -18 -15 -14 -22 4 -4 10 -1 14 6 12 6 -2
14 -10 16 -16z m6899 -59 c-2 -16 -4 -3 -4 27 0 30 2 43 4 28 2 -16 2 -40 0
-55z m-3152 53 c21 -6 61 -66 44 -66 -5 0 -19 9 -31 20 -12 11 -29 20 -39 20
-19 0 -42 24 -32 34 6 6 12 5 58 -8z m-1195 -6 c0 -5 -4 -10 -10 -10 -5 0 -10
5 -10 10 0 6 5 10 10 10 6 0 10 -4 10 -10z m1330 -25 c0 -31 -3 -35 -25 -35
-14 0 -25 4 -25 10 0 5 7 7 15 4 11 -5 15 1 15 25 0 17 5 31 10 31 6 0 10 -16
10 -35z m-1620 15 c0 -11 -1 -12 -57 -15 -50 -4 -59 12 -10 18 60 7 67 7 67
-3z m90 0 c0 -5 -11 -10 -25 -10 -14 0 -25 5 -25 10 0 6 11 10 25 10 14 0 25
-4 25 -10z m75 0 c3 -5 -1 -10 -9 -10 -8 0 -18 5 -21 10 -3 6 1 10 9 10 8 0
18 -4 21 -10z m-2195 -26 c0 -16 -65 -20 -74 -5 -8 13 0 17 39 18 24 1 35 -3
35 -13z m-115 -5 c-43 -13 -325 -24 -325 -12 0 5 2 12 5 15 3 3 83 6 178 6
121 1 163 -2 142 -9z m6365 -4 c0 -8 -7 -15 -15 -15 -26 0 -18 20 13 29 1 1 2
-6 2 -14z m868 4 c-2 -6 -8 -10 -13 -10 -5 0 -11 4 -13 10 -2 6 4 11 13 11 9
0 15 -5 13 -11z m-5158 -29 c0 -5 -5 -10 -11 -10 -5 0 -7 5 -4 10 3 6 8 10 11
10 2 0 4 -4 4 -10z m5010 -25 c0 -19 -2 -35 -4 -35 -2 0 -6 16 -8 35 -2 19 0
35 4 35 4 0 8 -16 8 -35z m-7070 15 c0 -5 -7 -10 -16 -10 -8 0 -12 5 -9 10 3
6 10 10 16 10 5 0 9 -4 9 -10z m1895 -10 c-3 -5 -10 -10 -16 -10 -5 0 -9 5 -9
10 0 6 7 10 16 10 8 0 12 -4 9 -10z m472 -36 c-3 -4 -14 -3 -24 0 -15 6 -15 8
-3 16 16 10 39 -4 27 -16z m3983 16 c0 -5 -9 -10 -20 -10 -11 0 -20 5 -20 10
0 6 9 10 20 10 11 0 20 -4 20 -10z m-6246 -6 c27 -10 7 -24 -35 -24 -42 0 -54
16 -16 23 12 2 25 5 29 6 3 0 13 -2 22 -5z m1006 -4 c0 -5 -7 -10 -15 -10 -8
0 -15 5 -15 10 0 6 7 10 15 10 8 0 15 -4 15 -10z m1160 1 c0 -12 -28 -22 -34
-12 -3 5 -3 11 1 15 9 9 33 7 33 -3z m4379 -63 l-2 -73 -8 64 c-7 58 -6 81 7
81 2 0 3 -33 3 -72z m1543 40 c-9 -9 -12 -7 -12 12 0 19 3 21 12 12 9 -9 9
-15 0 -24z m-8176 15 c-11 -11 -43 -14 -203 -19 -97 -3 -153 -1 -153 5 0 5 15
12 33 14 57 7 331 7 323 0z m7051 -60 c-3 -10 -5 -4 -5 12 0 17 2 24 5 18 2
-7 2 -21 0 -30z m-6968 8 c26 -17 -10 -21 -225 -28 -184 -5 -216 -4 -212 8 4
11 41 15 174 19 93 3 187 7 209 8 22 1 46 -2 54 -7z m-1529 -51 c0 -5 -9 -10
-19 -10 -11 0 -23 5 -26 10 -4 6 5 10 19 10 14 0 26 -4 26 -10z m3820 -5 c0
-8 -6 -15 -14 -15 -17 0 -28 14 -19 24 12 12 33 6 33 -9z m985 5 c3 -6 -1 -7
-9 -4 -18 7 -21 14 -7 14 6 0 13 -4 16 -10z m-3275 -15 c0 -16 3 -16 -304 -19
-93 -1 -130 2 -133 11 -4 12 44 16 325 21 94 2 112 0 112 -13z m2200 5 c0 -5
-2 -10 -4 -10 -3 0 -8 5 -11 10 -3 6 -1 10 4 10 6 0 11 -4 11 -10z m-2021 -24
c6 -8 10 -20 9 -27 -2 -8 7 -15 20 -17 13 -2 22 -10 22 -21 0 -9 5 -22 12 -29
9 -9 9 -12 0 -12 -8 0 -12 -19 -12 -54 0 -49 2 -54 24 -58 14 -3 29 -2 34 1 5
3 9 41 9 84 0 45 5 83 12 90 19 19 18 -157 -1 -180 -5 -6 -8 -20 -6 -30 5 -35
-8 -40 -67 -30 -30 6 -55 14 -55 19 0 4 -9 8 -20 8 -11 0 -20 -4 -20 -10 0 -5
-9 -10 -19 -10 -10 0 -21 -7 -25 -15 -3 -8 -12 -12 -21 -9 -8 3 -15 1 -15 -5
0 -8 -6 -7 -20 1 -17 11 -22 10 -30 -2 -7 -11 -10 -2 -10 33 0 44 2 47 25 47
25 0 25 1 25 85 l0 85 40 6 c28 5 40 12 40 23 0 17 18 41 31 41 4 0 12 -6 18
-14z m3111 -6 c0 -5 -9 -10 -20 -10 -11 0 -20 5 -20 10 0 6 9 10 20 10 11 0
20 -4 20 -10z m340 -4 c0 -2 -13 -6 -30 -8 -16 -3 -30 -1 -30 4 0 4 14 8 30 8
17 0 30 -2 30 -4z m-3242 -29 c2 -11 -3 -17 -17 -17 -23 0 -35 15 -26 31 10
15 39 6 43 -14z m1647 3 c8 -13 -20 -24 -41 -16 -20 8 -9 26 16 26 10 0 22 -5
25 -10z m85 -2 c0 -4 -9 -8 -20 -8 -11 0 -23 0 -27 -1 -4 0 -9 4 -11 10 -2 5
11 9 27 9 17 -1 31 -5 31 -10z m-154 -7 c-3 -5 -17 -8 -31 -8 -14 0 -25 3 -25
8 0 5 14 9 31 9 16 0 28 -4 25 -9z m-88 -8 c-10 -2 -26 -2 -35 0 -10 3 -2 5
17 5 19 0 27 -2 18 -5z m1779 -175 c-2 -35 -3 -7 -3 62 0 69 1 97 3 63 2 -35
2 -91 0 -125z m-5082 151 c12 -6 -12 -8 -65 -5 -46 2 -86 8 -87 13 -4 12 120
5 152 -8z m5935 1 c0 -5 -5 -10 -11 -10 -5 0 -7 5 -4 10 3 6 8 10 11 10 2 0 4
-4 4 -10z m-2136 -9 c3 -5 -8 -11 -25 -15 -39 -7 -64 5 -29 15 36 10 48 10 54
0z m-294 -10 l45 -8 -40 -3 c-22 -1 -53 -3 -70 -4 -37 -3 -52 4 -34 15 17 10
39 10 99 0z m345 -1 c-3 -5 -10 -10 -16 -10 -5 0 -9 5 -9 10 0 6 7 10 16 10 8
0 12 -4 9 -10z m5495 -11 c0 -5 -4 -9 -10 -9 -5 0 -10 7 -10 16 0 8 5 12 10 9
6 -3 10 -10 10 -16z m-8310 1 c0 -5 -4 -10 -10 -10 -5 0 -10 5 -10 10 0 6 5
10 10 10 6 0 10 -4 10 -10z m227 4 c-3 -3 -12 -4 -19 -1 -8 3 -5 6 6 6 11 1
17 -2 13 -5z m2009 -12 c-5 -8 -76 -4 -76 4 0 2 18 4 41 4 22 0 38 -4 35 -8z
m2754 -21 c0 -4 -13 -8 -30 -8 -30 0 -41 12 -17 20 15 5 47 -3 47 -12z m-2310
-7 c0 -12 -7 -15 -25 -12 -14 3 -27 2 -29 -1 -7 -11 -146 -13 -146 -3 0 11 94
27 108 19 4 -3 14 -2 22 4 25 15 70 11 70 -7z m148 -2 c2 -7 -5 -12 -16 -12
-13 0 -22 -8 -24 -22 -4 -31 -26 -34 -39 -4 -8 17 -20 26 -36 26 -21 0 -30 10
-19 21 11 10 130 2 134 -9z m-383 -3 c4 -6 5 -13 2 -16 -9 -8 -157 -15 -175
-8 -16 6 -16 7 -1 18 21 15 166 20 174 6z m-207 -16 c-4 -20 -54 -31 -70 -15
-17 17 1 32 38 32 28 0 35 -4 32 -17z m3052 -8 c0 -18 -5 -25 -20 -25 -20 0
-28 28 -13 43 15 16 33 6 33 -18z m-5275 5 c-3 -5 -19 -10 -36 -10 -16 0 -29
5 -29 10 0 6 16 10 36 10 21 0 33 -4 29 -10z m955 -28 c0 -14 -11 -21 -26 -15
-21 8 -17 23 6 23 11 0 20 -4 20 -8z m3465 -2 c3 -5 -3 -10 -15 -10 -12 0 -18
5 -15 10 3 6 10 10 15 10 5 0 12 -4 15 -10z m62 -22 c-3 -8 -6 -5 -6 6 -1 11
2 17 5 13 3 -3 4 -12 1 -19z m-4454 1 c-12 -12 -73 -19 -88 -10 -5 3 13 9 40
12 28 3 52 7 55 7 2 1 -1 -3 -7 -9z m2307 1 c0 -5 -12 -10 -26 -10 -14 0 -23
4 -19 10 3 6 15 10 26 10 10 0 19 -4 19 -10z m1955 -5 c6 0 11 -16 12 -35 2
-32 2 -33 -9 -12 -11 23 -28 30 -28 12 0 -5 -4 -10 -10 -10 -11 0 -14 43 -4
53 4 4 12 3 18 -1 6 -4 16 -7 21 -7z m-2025 -5 c0 -5 -7 -10 -15 -10 -8 0 -15
5 -15 10 0 6 7 10 15 10 8 0 15 -4 15 -10z m5580 -27 c0 -26 -3 -28 -46 -31
-42 -3 -45 -1 -42 20 2 18 9 22 28 20 13 -1 27 -8 32 -14 4 -7 11 -9 15 -4 4
5 2 11 -4 13 -18 6 -16 23 2 23 10 0 15 -10 15 -27z m-2930 -3 c0 -5 -7 -10
-15 -10 -8 0 -15 5 -15 10 0 6 7 10 15 10 8 0 15 -4 15 -10z m2180 -21 c0 -12
-37 -12 -44 0 -7 11 14 20 32 13 6 -2 12 -8 12 -13z m-6925 1 c-3 -5 -27 -9
-53 -9 -46 2 -46 2 -12 9 53 11 72 11 65 0z m60 0 c-28 -12 -37 -12 -30 0 3 6
16 10 28 9 21 0 21 -1 2 -9z m6793 -1 c-2 -6 -8 -10 -13 -10 -5 0 -11 4 -13
10 -2 6 4 11 13 11 9 0 15 -5 13 -11z m-6985 -6 c-18 -2 -48 -2 -65 0 -18 2
-4 4 32 4 36 0 50 -2 33 -4z m1241 -8 c26 -20 12 -32 -38 -37 -46 -3 -57 13
-24 36 27 20 37 20 62 1z m1134 -38 c3 -12 -4 -17 -22 -17 -32 0 -42 16 -19
29 23 13 37 9 41 -12z m162 -11 c-13 -13 -35 7 -25 24 5 8 11 8 21 -1 10 -8
12 -15 4 -23z m40 12 c0 -16 -3 -19 -11 -11 -6 6 -8 16 -5 22 11 17 16 13 16
-11z m1558 15 c-21 -2 -57 -2 -80 0 -24 2 -7 4 37 4 44 0 63 -2 43 -4z m-1838
-18 c0 -12 -14 -15 -65 -15 -70 0 -89 16 -27 23 81 8 92 7 92 -8z m130 0 c0
-8 -4 -15 -9 -15 -13 0 -22 16 -14 24 11 11 23 6 23 -9z m1567 -52 c-3 -10 -5
-2 -5 17 0 19 2 27 5 18 2 -10 2 -26 0 -35z m-5194 21 c7 -8 -22 -54 -34 -54
-4 0 -7 13 -6 30 2 28 23 41 40 24z m3939 -16 c11 11 38 5 38 -9 0 -5 -32 -9
-71 -9 -46 0 -68 4 -64 10 4 6 15 8 25 5 10 -3 21 -1 25 5 5 8 11 7 21 -1 11
-9 18 -9 26 -1z m2468 2 c0 -5 -12 -10 -27 -9 l-28 1 25 8 c14 4 26 8 28 9 1
1 2 -3 2 -9z m3420 6 c0 -3 -4 -8 -10 -11 -5 -3 -10 -1 -10 4 0 6 5 11 10 11
6 0 10 -2 10 -4z m-9790 -20 c0 -8 -4 -18 -10 -21 -5 -3 -10 3 -10 14 0 12 5
21 10 21 6 0 10 -6 10 -14z m5607 -18 c-3 -7 -5 -2 -5 12 0 14 2 19 5 13 2 -7
2 -19 0 -25z m4073 22 c0 -5 -4 -10 -10 -10 -5 0 -10 5 -10 10 0 6 5 10 10 10
6 0 10 -4 10 -10z m-9602 -33 c5 -22 -24 -33 -44 -16 -14 12 -14 14 2 26 22
16 38 12 42 -10z m5079 -9 c-3 -8 -6 -5 -6 6 -1 11 2 17 5 13 3 -3 4 -12 1
-19z m3533 12 c0 -5 -4 -10 -10 -10 -5 0 -10 5 -10 10 0 6 5 10 10 10 6 0 10
-4 10 -10z m-260 -15 c0 -9 -9 -15 -25 -15 -24 0 -32 10 -18 23 12 13 43 7 43
-8z m190 0 c0 -8 -4 -15 -10 -15 -5 0 -10 7 -10 15 0 8 5 15 10 15 6 0 10 -7
10 -15z m-6294 -52 c-12 -12 -29 15 -21 34 7 17 8 16 18 -5 5 -12 7 -25 3 -29z
m64 35 c0 -7 -5 -20 -10 -28 -9 -13 -12 -12 -25 4 -21 28 -19 36 10 36 14 0
25 -6 25 -12z m40 2 c0 -6 8 -10 18 -8 10 2 17 -3 17 -12 0 -23 -36 -18 -52 8
-14 20 -14 22 1 22 9 0 16 -5 16 -10z m1728 -28 c3 -9 -2 -13 -14 -10 -9 1
-19 9 -22 16 -3 9 2 13 14 10 9 -1 19 -9 22 -16z m1972 3 c0 -8 -7 -15 -15
-15 -16 0 -20 12 -8 23 11 12 23 8 23 -8z m2140 5 c0 -5 -4 -10 -9 -10 -6 0
-13 5 -16 10 -3 6 1 10 9 10 9 0 16 -4 16 -10z m-2661 -42 c0 -33 -2 -38 -9
-23 -12 28 -12 65 0 65 6 0 10 -19 9 -42z m-1139 6 c0 -14 -4 -23 -10 -19 -5
3 -10 15 -10 26 0 10 5 19 10 19 6 0 10 -12 10 -26z m917 -26 c-2 -13 -4 -5
-4 17 -1 22 1 32 4 23 2 -10 2 -28 0 -40z m423 33 c0 -23 -16 -36 -25 -21 -9
14 1 40 15 40 5 0 10 -9 10 -19z m-3800 -15 c0 -34 -18 -42 -29 -14 -10 27 -6
38 15 38 8 0 14 -10 14 -24z m3147 -23 c-3 -10 -5 -4 -5 12 0 17 2 24 5 18 2
-7 2 -21 0 -30z m2819 -14 c12 -20 -12 -32 -37 -18 -23 12 -23 12 -4 20 28 11
33 10 41 -2z m-4116 -8 c0 -12 -29 -23 -41 -15 -5 3 -7 10 -4 15 8 12 45 12
45 0z m60 -1 c0 -5 -4 -10 -10 -10 -5 0 -10 5 -10 10 0 6 5 10 10 10 6 0 10
-4 10 -10z m3807 -24 c-4 -9 -11 -16 -17 -16 -11 0 -14 33 -3 44 11 10 26 -11
20 -28z m-5170 -2 c-9 -9 -28 6 -21 18 4 6 10 6 17 -1 6 -6 8 -13 4 -17z
m1063 16 c0 -5 -4 -10 -10 -10 -5 0 -10 5 -10 10 0 6 5 10 10 10 6 0 10 -4 10
-10z m85 0 c-3 -5 -11 -10 -16 -10 -6 0 -7 5 -4 10 3 6 11 10 16 10 6 0 7 -4
4 -10z m435 0 c0 -5 -7 -10 -15 -10 -8 0 -15 5 -15 10 0 6 7 10 15 10 8 0 15
-4 15 -10z m964 -14 c14 -23 14 -26 0 -40 -23 -23 -47 -21 -35 2 7 13 7 22 -1
30 -11 11 -3 32 11 32 5 0 16 -11 25 -24z m225 -13 c-22 -3 -25 -8 -21 -29 3
-19 0 -24 -17 -24 -20 0 -25 9 -22 37 1 8 -18 13 -51 16 -29 2 -10 3 42 4 52
0 83 -2 69 -4z m-335 -30 c-12 -48 -18 -52 -48 -30 -26 19 -5 57 30 57 22 0
24 -3 18 -27z m166 -20 c0 -25 -2 -44 -4 -42 -8 10 -13 89 -5 89 5 0 9 -21 9
-47z m227 -20 c-2 -16 -4 -5 -4 22 0 28 2 40 4 28 2 -13 2 -35 0 -50z m-3379
45 c-6 -18 -28 -21 -28 -4 0 9 7 16 16 16 9 0 14 -5 12 -12z m3599 -55 c-3
-10 -5 -2 -5 17 0 19 2 27 5 18 2 -10 2 -26 0 -35z m3343 21 c0 -8 -7 -14 -15
-14 -15 0 -21 21 -9 33 10 9 24 -2 24 -19z m120 0 c0 -8 -7 -14 -15 -14 -15 0
-21 21 -9 33 10 9 24 -2 24 -19z m-1985 6 c3 -5 1 -10 -4 -10 -6 0 -11 5 -11
10 0 6 2 10 4 10 3 0 8 -4 11 -10z m1915 -5 c0 -8 -4 -15 -10 -15 -5 0 -10 7
-10 15 0 8 5 15 10 15 6 0 10 -7 10 -15z m-5120 -30 c0 -15 -43 -12 -48 3 -3
10 4 13 22 10 15 -2 26 -7 26 -13z m61 0 c-1 -15 -24 -12 -29 3 -3 9 2 13 12
10 10 -1 17 -7 17 -13z m1147 3 c29 -29 4 -98 -28 -78 -12 7 -12 13 -4 27 9
14 8 20 -4 29 -16 12 -9 34 12 34 6 0 17 -5 24 -12z m-1698 -8 c0 -5 -2 -10
-4 -10 -3 0 -8 5 -11 10 -3 6 -1 10 4 10 6 0 11 -4 11 -10z m240 0 c0 -5 -11
-10 -25 -10 -14 0 -25 5 -25 10 0 6 11 10 25 10 14 0 25 -4 25 -10z m6240 -9
c0 -5 10 -11 22 -15 21 -5 22 -7 7 -22 -16 -15 -19 -14 -48 7 -16 12 -28 26
-25 31 7 11 44 10 44 -1z m-268 -17 c-12 -8 -27 -12 -32 -9 -17 10 -1 25 28
25 l26 0 -22 -16z m-2722 -15 c24 -13 22 -14 -40 -20 -36 -3 -76 -1 -90 4 -25
9 -25 9 10 21 43 15 88 14 120 -5z m2895 11 c3 -5 1 -10 -4 -10 -6 0 -11 5
-11 10 0 6 2 10 4 10 3 0 8 -4 11 -10z m-7705 -32 c0 -16 -3 -19 -11 -11 -6 6
-8 16 -5 22 11 17 16 13 16 -11z m1755 12 c4 -6 -5 -10 -19 -10 -14 0 -26 5
-26 10 0 6 9 10 19 10 11 0 23 -4 26 -10z m125 2 c0 -13 -12 -22 -22 -16 -10
6 -1 24 13 24 5 0 9 -4 9 -8z m1220 -2 c0 -5 -4 -10 -10 -10 -5 0 -10 5 -10
10 0 6 5 10 10 10 6 0 10 -4 10 -10z m-13 -67 c-3 -10 -5 -2 -5 17 0 19 2 27
5 18 2 -10 2 -26 0 -35z m230 0 c-3 -10 -5 -2 -5 17 0 19 2 27 5 18 2 -10 2
-26 0 -35z m4548 27 c-10 -11 -25 -20 -33 -20 -12 0 -12 4 3 20 10 11 25 20
33 20 12 0 12 -4 -3 -20z m-9735 -5 c0 -15 -61 -27 -74 -15 -15 14 2 26 38 27
23 1 36 -4 36 -12z m5407 -32 c-3 -10 -5 -2 -5 17 0 19 2 27 5 18 2 -10 2 -26
0 -35z m4883 37 c0 -5 -9 -10 -21 -10 -11 0 -17 5 -14 10 3 6 13 10 21 10 8 0
14 -4 14 -10z m-6967 -9 c4 -1 7 -8 7 -16 0 -12 -13 -15 -60 -15 -33 0 -60 4
-60 10 0 6 9 10 19 10 11 0 22 4 25 8 4 6 26 7 69 3z m-219 -7 c23 -9 20 -24
-4 -24 -11 0 -20 7 -20 15 0 17 2 18 24 9z m86 -14 c0 -5 -4 -10 -9 -10 -6 0
-13 5 -16 10 -3 6 1 10 9 10 9 0 16 -4 16 -10z m2138 -2 c16 -16 15 -35 -2
-41 -21 -8 -50 17 -43 37 7 19 28 21 45 4z m2997 -18 c0 -9 -11 -16 -27 -18
-27 -3 -38 14 -21 32 12 12 48 2 48 -14z m-175 2 c0 -13 -12 -22 -22 -16 -10
6 -1 24 13 24 5 0 9 -4 9 -8z m-6347 -44 c-10 -21 -12 -21 -18 -5 -10 25 2 54
17 39 8 -8 8 -18 1 -34z m7647 27 c0 -8 -4 -15 -10 -15 -5 0 -10 7 -10 15 0 8
5 15 10 15 6 0 10 -7 10 -15z m-7600 -30 c0 -19 -4 -35 -10 -35 -5 0 -10 16
-10 35 0 19 5 35 10 35 6 0 10 -16 10 -35z m7550 31 c0 -11 -19 -15 -25 -6 -3
5 1 10 9 10 9 0 16 -2 16 -4z m-5650 -16 c0 -5 -7 -10 -15 -10 -8 0 -15 5 -15
10 0 6 7 10 15 10 8 0 15 -4 15 -10z m-60 -10 c0 -5 -9 -10 -19 -10 -11 0 -23
5 -26 10 -4 6 5 10 19 10 14 0 26 -4 26 -10z m-3340 -26 c0 -8 5 -14 10 -14 6
0 10 9 10 20 0 11 5 20 10 20 6 0 10 -3 10 -7 0 -5 33 -8 72 -8 66 0 73 -2 73
-20 0 -19 -6 -20 -91 -17 -59 2 -94 0 -99 -7 -3 -6 -11 -9 -16 -6 -10 7 -12
48 -3 58 10 9 24 -2 24 -19z m4673 19 c-7 -2 -19 -2 -25 0 -7 3 -2 5 12 5 14
0 19 -2 13 -5z m1967 -3 c0 -5 -9 -10 -20 -10 -11 0 -20 5 -20 10 0 6 9 10 20
10 11 0 20 -4 20 -10z m-2072 -22 c8 -8 15 -8 25 0 17 15 27 6 27 -25 0 -24
-14 -31 -26 -12 -4 8 -9 8 -17 0 -20 -20 -47 -13 -47 12 0 36 16 47 38 25z
m177 -9 c4 -6 -2 -19 -14 -30 -25 -23 -32 -24 -24 -2 5 12 2 15 -10 10 -12 -5
-17 -1 -17 13 0 15 7 20 29 20 17 0 33 -5 36 -11z m255 1 c0 -5 -2 -10 -4 -10
-3 0 -8 5 -11 10 -3 6 -1 10 4 10 6 0 11 -4 11 -10z m1600 0 c0 -5 -4 -10 -10
-10 -5 0 -10 5 -10 10 0 6 5 10 10 10 6 0 10 -4 10 -10z m-3520 -11 c0 -5 -14
-9 -31 -9 -16 0 -28 4 -25 9 3 5 17 9 31 9 14 0 25 -4 25 -9z m330 1 c0 -5 -7
-10 -16 -10 -8 0 -12 5 -9 10 3 6 10 10 16 10 5 0 9 -4 9 -10z m1420 -10 c0
-11 -4 -20 -10 -20 -5 0 -10 9 -10 20 0 11 5 20 10 20 6 0 10 -9 10 -20z m227
-27 c-3 -10 -5 -2 -5 17 0 19 2 27 5 18 2 -10 2 -26 0 -35z m3471 28 c3 -8 -1
-12 -9 -9 -7 2 -15 10 -17 17 -3 8 1 12 9 9 7 -2 15 -10 17 -17z m-5671 3 c-3
-3 -12 -4 -19 -1 -8 3 -5 6 6 6 11 1 17 -2 13 -5z m1540 -16 c-3 -8 -6 -5 -6
6 -1 11 2 17 5 13 3 -3 4 -12 1 -19z m728 -3 c0 -10 -6 -20 -12 -22 -8 -3 -13
5 -13 22 0 17 5 25 13 23 6 -3 12 -13 12 -23z m711 10 c20 -15 17 -17 -26 -17
-71 -2 -101 3 -94 13 3 6 17 8 29 5 13 -3 27 -2 30 4 9 15 38 12 61 -5z m1607
8 c8 -8 -25 -33 -35 -27 -5 3 -8 12 -8 20 0 14 31 20 43 7z m1002 -2 c3 -5 1
-12 -5 -16 -5 -3 -10 1 -10 9 0 18 6 21 15 7z m145 -1 c0 -5 -7 -10 -15 -10
-8 0 -15 5 -15 10 0 6 7 10 15 10 8 0 15 -4 15 -10z m-1450 -15 c0 -10 -10
-15 -30 -15 -20 0 -30 5 -30 15 0 10 10 15 30 15 20 0 30 -5 30 -15z m76 4
c12 -20 -11 -30 -42 -18 l-29 12 25 7 c36 11 38 11 46 -1z m58 2 c3 -5 0 -13
-7 -19 -15 -13 -42 1 -33 17 9 13 33 15 40 2z m-1726 -8 c-10 -2 -28 -2 -40 0
-13 2 -5 4 17 4 22 1 32 -1 23 -4z m72 -2 c0 -5 -9 -7 -20 -4 -11 3 -20 7 -20
9 0 2 9 4 20 4 11 0 20 -4 20 -9z m1730 0 c0 -11 -30 -19 -47 -14 -24 8 -13
23 17 23 17 0 30 -4 30 -9z m-850 -15 c0 -3 -4 -8 -10 -11 -5 -3 -10 -1 -10 4
0 6 5 11 10 11 6 0 10 -2 10 -4z m-1880 -27 c0 -5 -4 -9 -10 -9 -5 0 -10 7
-10 16 0 8 5 12 10 9 6 -3 10 -10 10 -16z m-2370 7 c0 -11 -19 -15 -25 -6 -3
5 1 10 9 10 9 0 16 -2 16 -4z m7810 -6 c0 -5 -4 -10 -10 -10 -5 0 -10 5 -10
10 0 6 5 10 10 10 6 0 10 -4 10 -10z m-5223 -47 c-3 -10 -5 -2 -5 17 0 19 2
27 5 18 2 -10 2 -26 0 -35z m151 27 c12 -20 6 -25 -22 -14 -19 7 -21 34 -3 34
7 0 18 -9 25 -20z m892 10 c0 -5 -5 -10 -11 -10 -5 0 -7 5 -4 10 3 6 8 10 11
10 2 0 4 -4 4 -10z m-5052 -24 c3 -12 -1 -17 -10 -14 -7 3 -15 13 -16 22 -3
12 1 17 10 14 7 -3 15 -13 16 -22z m1672 14 c0 -5 -4 -10 -9 -10 -6 0 -13 5
-16 10 -3 6 1 10 9 10 9 0 16 -4 16 -10z m1905 -11 c9 -28 -9 -46 -29 -30 -12
10 -13 16 -3 32 15 25 24 24 32 -2z m-4485 -9 c11 -7 -3 -9 -45 -9 -48 1 -54
3 -30 9 43 11 58 11 75 0z m165 0 c-3 -5 -32 -9 -63 -9 -55 2 -56 2 -17 9 62
11 87 11 80 0z m-419 -11 c-17 -4 -52 -5 -80 0 -49 8 -48 9 29 9 61 0 73 -2
51 -9z m92 4 c-10 -2 -28 -2 -40 0 -13 2 -5 4 17 4 22 1 32 -1 23 -4z m9689
-9 c-3 -3 -12 -4 -19 -1 -8 3 -5 6 6 6 11 1 17 -2 13 -5z m-4390 -51 c-3 -10
-5 -2 -5 17 0 19 2 27 5 18 2 -10 2 -26 0 -35z m1933 39 c0 -13 -12 -22 -22
-16 -10 6 -1 24 13 24 5 0 9 -4 9 -8z m-1823 -24 c-3 -8 -6 -5 -6 6 -1 11 2
17 5 13 3 -3 4 -12 1 -19z m1893 12 c0 -5 -7 -10 -15 -10 -8 0 -15 5 -15 10 0
6 7 10 15 10 8 0 15 -4 15 -10z m-3270 -4 c0 -3 -4 -8 -10 -11 -5 -3 -10 -1
-10 4 0 6 5 11 10 11 6 0 10 -2 10 -4z m1047 -18 c-3 -8 -6 -5 -6 6 -1 11 2
17 5 13 3 -3 4 -12 1 -19z m-3350 -10 c-3 -8 -6 -5 -6 6 -1 11 2 17 5 13 3 -3
4 -12 1 -19z m2953 2 c0 -23 -13 -32 -34 -24 -26 10 -19 39 9 42 19 1 25 -3
25 -18z m-4217 3 c-7 -2 -19 -2 -25 0 -7 3 -2 5 12 5 14 0 19 -2 13 -5z m3087
-3 c0 -5 -5 -10 -11 -10 -5 0 -7 5 -4 10 3 6 8 10 11 10 2 0 4 -4 4 -10z
m-2480 -10 c0 -5 -5 -10 -11 -10 -5 0 -7 5 -4 10 3 6 8 10 11 10 2 0 4 -4 4
-10z m1690 0 c0 -5 -4 -10 -10 -10 -5 0 -10 5 -10 10 0 6 5 10 10 10 6 0 10
-4 10 -10z m5628 -1 c-2 -6 -8 -10 -13 -10 -5 0 -11 4 -13 10 -2 6 4 11 13 11
9 0 15 -5 13 -11z m92 -2 c0 -21 -11 -27 -31 -16 -27 14 -23 29 6 29 14 0 25
-6 25 -13z m1160 1 c0 -4 -23 -8 -51 -8 -27 0 -48 4 -45 9 7 11 96 11 96 -1z
m-5630 -8 c0 -5 -7 -10 -15 -10 -8 0 -15 5 -15 10 0 6 7 10 15 10 8 0 15 -4
15 -10z m2500 0 c0 -5 -7 -10 -15 -10 -8 0 -15 5 -15 10 0 6 7 10 15 10 8 0
15 -4 15 -10z m1700 0 c0 -5 -7 -10 -16 -10 -8 0 -12 5 -9 10 3 6 10 10 16 10
5 0 9 -4 9 -10z m100 0 c0 -5 -11 -10 -25 -10 -14 0 -25 5 -25 10 0 6 11 10
25 10 14 0 25 -4 25 -10z m-2250 -20 c0 -5 -5 -10 -11 -10 -5 0 -7 5 -4 10 3
6 8 10 11 10 2 0 4 -4 4 -10z m-1087 -17 c-13 -2 -33 -2 -45 0 -13 2 -3 4 22
4 25 0 35 -2 23 -4z m4247 -3 c3 -1 -4 -5 -15 -9 -22 -9 -38 -4 -30 9 4 7 22
7 45 0z m-8750 -4 c0 -3 -4 -8 -10 -11 -5 -3 -10 -1 -10 4 0 6 5 11 10 11 6 0
10 -2 10 -4z m1930 -6 c0 -5 -4 -10 -10 -10 -5 0 -10 5 -10 10 0 6 5 10 10 10
6 0 10 -4 10 -10z m4860 0 c0 -6 8 -10 17 -8 10 2 19 -4 21 -14 2 -13 -3 -18
-17 -18 -12 0 -21 6 -21 15 0 8 -4 15 -10 15 -5 0 -10 5 -10 10 0 6 5 10 10
10 6 0 10 -5 10 -10z m2430 -6 c0 -6 -28 -11 -72 -12 -72 -1 -92 3 -84 17 8
12 156 7 156 -5z m-10118 -16 c-9 -9 -15 -9 -24 0 -9 9 -7 12 12 12 19 0 21
-3 12 -12z m4378 -2 c0 -8 -7 -16 -15 -20 -10 -4 -15 1 -15 14 0 11 7 20 15
20 8 0 15 -6 15 -14z m1127 -23 c-3 -10 -5 -4 -5 12 0 17 2 24 5 18 2 -7 2
-21 0 -30z m2303 22 c0 -8 -7 -15 -15 -15 -16 0 -20 12 -8 23 11 12 23 8 23
-8z m325 6 c8 -14 -13 -24 -33 -16 -14 5 -14 7 -2 15 19 12 27 12 35 1z
m-2408 -33 c-3 -7 -5 -2 -5 12 0 14 2 19 5 13 2 -7 2 -19 0 -25z m-1787 12 c0
-5 -5 -10 -11 -10 -5 0 -7 5 -4 10 3 6 8 10 11 10 2 0 4 -4 4 -10z m4890 0 c0
-5 -7 -10 -15 -10 -8 0 -15 5 -15 10 0 6 7 10 15 10 8 0 15 -4 15 -10z m170 0
c0 -5 -7 -10 -16 -10 -8 0 -12 5 -9 10 3 6 10 10 16 10 5 0 9 -4 9 -10z"/>
<path d="M4490 8193 c-40 -93 -85 -195 -100 -228 -15 -33 -41 -91 -58 -130
-40 -92 -104 -236 -136 -308 -14 -32 -26 -59 -26 -61 0 -3 -15 -37 -34 -78
-32 -69 -191 -434 -222 -508 -9 -19 -21 -46 -28 -60 -8 -14 -46 -99 -86 -190
-39 -91 -80 -183 -90 -205 -10 -22 -34 -76 -53 -120 -20 -44 -54 -120 -75
-170 -22 -49 -52 -117 -67 -150 -15 -33 -45 -100 -66 -150 -22 -49 -49 -109
-59 -132 -11 -24 -15 -43 -10 -43 6 0 10 -4 10 -10 0 -5 -6 -10 -13 -10 -13 0
-38 -50 -107 -210 -18 -41 -45 -102 -60 -135 -111 -241 -150 -338 -139 -351
15 -18 4 -46 -17 -42 -13 2 -90 -162 -354 -757 -185 -418 -362 -813 -391 -878
-30 -65 -55 -123 -57 -128 -2 -5 100 -9 254 -9 230 0 259 2 277 17 18 17 19
17 32 0 11 -15 38 -17 288 -17 l275 0 30 73 c17 39 38 86 46 102 9 17 16 37
16 45 0 9 6 24 14 35 7 11 90 193 183 405 199 451 187 422 188 435 0 6 9 23
20 38 14 22 16 33 8 46 -8 12 -8 23 -1 32 7 11 11 11 15 1 4 -11 62 90 63 110
0 3 16 40 35 81 19 41 35 77 35 81 0 3 15 38 34 78 18 40 93 208 166 373 72
165 138 314 145 330 29 62 109 243 145 325 72 163 202 456 236 528 19 40 34
75 34 79 0 3 9 24 19 47 32 68 156 346 191 426 17 41 44 102 60 135 15 33 38
83 50 111 l21 51 -84 189 c-46 104 -115 259 -152 344 -37 85 -78 179 -91 208
-13 29 -24 54 -24 56 0 4 -25 59 -94 211 -13 28 -43 96 -67 153 -24 56 -46
102 -49 102 -3 0 -39 -75 -80 -167z m-130 -547 c0 -3 -4 -8 -10 -11 -5 -3 -10
-1 -10 4 0 6 5 11 10 11 6 0 10 -2 10 -4z m-65 -185 c7 -12 -12 -24 -25 -16
-11 7 -4 25 10 25 5 0 11 -4 15 -9z m-45 -251 c0 -5 -4 -10 -10 -10 -5 0 -10
5 -10 10 0 6 5 10 10 10 6 0 10 -4 10 -10z m-340 -820 c0 -5 -7 -10 -16 -10
-8 0 -12 5 -9 10 3 6 10 10 16 10 5 0 9 -4 9 -10z m88 -13 c3 -12 -3 -17 -22
-17 -28 0 -29 1 -20 25 8 20 38 15 42 -8z m706 2 c-3 -5 -10 -7 -15 -3 -5 3
-7 10 -3 15 3 5 10 7 15 3 5 -3 7 -10 3 -15z m-654 -185 c0 -8 -5 -12 -10 -9
-6 4 -8 11 -5 16 9 14 15 11 15 -7z m250 -87 c0 -8 -3 -17 -7 -20 -9 -9 -34
13 -27 24 8 14 34 11 34 -4z m270 -27 c0 -5 -4 -10 -10 -10 -5 0 -10 5 -10 10
0 6 5 10 10 10 6 0 10 -4 10 -10z m-593 -286 c4 -10 0 -22 -8 -28 -9 -6 -18
-19 -22 -29 -10 -26 -31 -16 -35 15 -5 44 50 79 65 42z m-372 -94 c3 -5 1 -10
-4 -10 -6 0 -11 5 -11 10 0 6 2 10 4 10 3 0 8 -4 11 -10z m521 -77 c-10 -10
-19 5 -10 18 6 11 8 11 12 0 2 -7 1 -15 -2 -18z m284 1 c0 -8 -7 -14 -15 -14
-15 0 -21 21 -9 33 10 9 24 -2 24 -19z m-22 -136 c-6 -18 -28 -21 -28 -4 0 9
7 16 16 16 9 0 14 -5 12 -12z m-741 -14 c5 -15 -28 -27 -40 -15 -5 5 -6 14 -2
21 8 13 37 9 42 -6z m423 -29 c0 -8 -7 -15 -15 -15 -16 0 -20 12 -8 23 11 12
23 8 23 -8z m165 -41 c0 -10 -8 -20 -17 -22 -18 -3 -26 27 -11 42 12 11 28 0
28 -20z m115 6 c0 -5 -7 -10 -16 -10 -8 0 -12 5 -9 10 3 6 10 10 16 10 5 0 9
-4 9 -10z m-790 -84 c-13 -13 -35 7 -25 24 5 8 11 8 21 -1 10 -8 12 -15 4 -23z
m120 10 c0 -2 3 -11 6 -20 4 -11 0 -16 -14 -16 -20 0 -36 23 -25 34 7 7 33 8
33 2z m196 -7 c10 -17 -13 -36 -27 -22 -12 12 -4 33 11 33 5 0 12 -5 16 -11z
m-139 -76 c6 -18 -45 -49 -59 -35 -9 9 -7 17 7 32 20 22 46 23 52 3z m63 7 c0
-5 -4 -10 -10 -10 -5 0 -10 5 -10 10 0 6 5 10 10 10 6 0 10 -4 10 -10z m427
-16 c8 -21 -13 -42 -28 -27 -13 13 -5 43 11 43 6 0 13 -7 17 -16z m-740 -20
c6 -15 -19 -44 -38 -44 -11 0 -19 28 -13 45 8 20 43 19 51 -1z m53 -40 c0 -17
-22 -14 -28 4 -2 7 3 12 12 12 9 0 16 -7 16 -16z m-90 -33 c0 -3 -5 -13 -10
-21 -9 -13 -12 -12 -25 4 -19 25 -1 53 21 35 8 -6 14 -14 14 -18z m265 19 c3
-5 -1 -10 -9 -10 -9 0 -16 5 -16 10 0 6 4 10 9 10 6 0 13 -4 16 -10z m193 -13
c3 -14 -1 -18 -20 -15 -12 2 -24 11 -26 21 -3 14 1 18 20 15 12 -2 24 -11 26
-21z m122 -3 c0 -8 -7 -14 -15 -14 -15 0 -21 21 -9 33 10 9 24 -2 24 -19z
m140 -4 c0 -15 -38 -32 -45 -20 -3 5 -3 15 0 20 8 13 45 13 45 0z m-355 -53
c0 -15 -4 -28 -9 -29 -14 -5 -30 28 -23 46 10 26 32 14 32 -17z m-465 3 c0 -5
-4 -10 -10 -10 -5 0 -10 5 -10 10 0 6 5 10 10 10 6 0 10 -4 10 -10z m390 -14
c16 -20 9 -60 -12 -64 -12 -2 -19 5 -24 22 -11 46 10 72 36 42z m-73 -18 c29
-27 29 -39 1 -62 -21 -18 -22 -18 -35 0 -16 22 -17 84 -1 84 6 0 22 -10 35
-22z m438 -9 c8 -23 -7 -45 -24 -35 -6 4 -11 18 -11 32 0 30 26 32 35 3z
m-495 -59 c0 -5 -4 -10 -10 -10 -5 0 -10 5 -10 10 0 6 5 10 10 10 6 0 10 -4
10 -10z m280 -20 c0 -11 -6 -20 -14 -20 -18 0 -29 16 -21 30 11 18 35 11 35
-10z m246 -31 c10 -17 -13 -36 -27 -22 -12 12 -4 33 11 33 5 0 12 -5 16 -11z
m-528 -77 c3 -19 -1 -23 -15 -20 -10 2 -19 14 -21 26 -3 19 1 23 15 20 10 -2
19 -14 21 -26z m357 -22 c-5 -8 -11 -8 -17 -2 -6 6 -7 16 -3 22 5 8 11 8 17 2
6 -6 7 -16 3 -22z m100 -1 c0 -7 -8 -15 -17 -17 -18 -3 -25 18 -11 32 10 10
28 1 28 -15z m-402 -57 c3 -15 5 -27 4 -28 -1 -1 -21 -4 -44 -8 -39 -6 -43 -4
-43 14 0 11 4 20 9 20 5 0 12 8 16 19 9 28 52 16 58 -17z m-165 -145 c6 -29
-28 -59 -61 -54 -24 3 -29 0 -34 -25 -7 -33 -21 -45 -29 -24 -7 18 9 49 49 93
34 37 69 41 75 10z m112 -115 c0 -9 -9 -23 -20 -30 -18 -11 -20 -10 -20 12 0
22 10 33 33 35 4 1 7 -7 7 -17z m-583 -8 c8 -21 -13 -42 -28 -27 -13 13 -5 43
11 43 6 0 13 -7 17 -16z m201 -92 c3 -17 -2 -22 -17 -22 -14 0 -21 6 -21 18 0
38 33 41 38 4z m382 -2 c0 -13 -7 -20 -20 -20 -19 0 -27 20 -13 33 13 14 33 6
33 -13z m-21 -72 c12 -20 11 -24 -13 -43 -14 -11 -26 -27 -26 -34 0 -11 -3
-11 -15 -1 -10 8 -11 17 -5 28 6 10 14 29 20 45 12 33 21 34 39 5z m86 12 c3
-5 15 -10 26 -10 21 0 23 -7 10 -29 -8 -12 -12 -12 -25 -2 -9 7 -22 11 -31 8
-17 -7 -29 8 -21 28 6 17 32 20 41 5z m-37 -93 c2 -12 -3 -17 -17 -17 -15 0
-21 6 -21 21 0 25 33 22 38 -4z m-12 -59 c-14 -47 -17 -51 -27 -41 -14 14 -2
53 16 53 8 0 13 -6 11 -12z m-708 -40 c-3 -24 -34 -36 -49 -21 -16 16 2 43 28
43 20 0 24 -4 21 -22z m516 -59 c-3 -5 -10 -7 -15 -3 -5 3 -7 10 -3 15 3 5 10
7 15 3 5 -3 7 -10 3 -15z m-159 -64 c0 -30 -39 -27 -43 3 -3 20 0 23 20 20 15
-2 23 -10 23 -23z m-335 -5 c0 -5 -4 -10 -10 -10 -5 0 -10 5 -10 10 0 6 5 10
10 10 6 0 10 -4 10 -10z m37 -53 c-2 -7 -13 -13 -25 -15 -26 -4 -42 26 -21 38
16 11 52 -7 46 -23z m633 3 c12 -7 12 -12 3 -21 -9 -9 -16 -9 -27 1 -26 21 -5
39 24 20z m-436 -105 c21 -32 20 -55 -2 -55 -20 0 -57 55 -47 70 11 17 32 11
49 -15z m386 -55 c0 -5 -4 -10 -10 -10 -5 0 -10 5 -10 10 0 6 5 10 10 10 6 0
10 -4 10 -10z m-32 -23 c2 -11 -3 -17 -17 -17 -23 0 -35 15 -26 31 10 15 39 6
43 -14z m-76 -52 c0 -5 -5 -11 -11 -13 -6 -2 -11 4 -11 13 0 9 5 15 11 13 6
-2 11 -8 11 -13z m134 -82 c-10 -10 -19 5 -10 18 6 11 8 11 12 0 2 -7 1 -15
-2 -18z m-889 -39 c6 -16 -12 -34 -34 -34 -7 0 -13 11 -13 25 0 18 5 25 20 25
11 0 23 -7 27 -16z m104 -80 c10 -13 10 -17 -2 -25 -27 -17 -59 -5 -59 22 0
24 42 26 61 3z m595 -165 c9 -16 -18 -30 -33 -17 -7 6 -10 14 -7 19 7 13 31
11 40 -2z m-86 -14 c10 -12 10 -18 0 -30 -25 -30 -53 -15 -43 23 6 26 25 28
43 7z"/>
<path d="M6148 8253 c-26 -60 -67 -155 -93 -213 -25 -58 -49 -114 -55 -125
-21 -46 -130 -297 -130 -301 0 -2 -16 -39 -36 -81 -59 -126 -79 -171 -138
-305 l-55 -127 30 -73 c17 -40 39 -91 49 -113 10 -22 43 -98 75 -170 78 -178
142 -320 171 -382 13 -28 24 -54 24 -57 0 -3 14 -36 31 -73 55 -120 66 -144
182 -408 138 -312 167 -375 182 -395 6 -8 17 -33 23 -55 6 -22 54 -134 106
-250 l94 -210 409 2 c224 0 415 2 423 3 8 1 27 -2 42 -5 22 -6 29 -3 35 11 13
38 53 39 53 2 0 -17 6 -19 73 -16 69 3 72 4 69 26 -2 13 -59 148 -127 300 -67
152 -157 356 -200 452 -42 96 -81 180 -85 185 -4 6 -13 28 -20 49 -10 31 -14
36 -22 23 -10 -18 -38 -12 -38 9 0 7 7 17 16 22 19 10 12 27 -112 300 -13 29
-24 54 -24 57 0 2 -13 32 -29 67 -48 106 -108 240 -131 293 -12 28 -42 95 -67
150 -24 55 -49 109 -53 120 -5 11 -61 139 -126 285 -64 146 -141 321 -171 390
-95 216 -125 283 -158 355 -18 39 -47 104 -64 145 -18 41 -40 93 -50 115 -10
22 -24 55 -31 73 -7 17 -15 32 -19 32 -3 0 -27 -48 -53 -107z m113 -616 c-13
-13 -26 -3 -16 12 3 6 11 8 17 5 6 -4 6 -10 -1 -17z m-66 -117 c3 -5 1 -10 -4
-10 -6 0 -11 5 -11 10 0 6 2 10 4 10 3 0 8 -4 11 -10z m145 -60 c0 -13 -7 -20
-20 -20 -13 0 -20 7 -20 20 0 13 7 20 20 20 13 0 20 -7 20 -20z m40 -189 c0
-6 -4 -13 -10 -16 -5 -3 -10 1 -10 9 0 9 5 16 10 16 6 0 10 -4 10 -9z m-6 -59
c-1 -7 -2 -21 -2 -32 -3 -33 -27 -23 -26 10 2 41 2 42 17 38 6 -3 12 -10 11
-16z m116 -32 c0 -5 -4 -10 -10 -10 -5 0 -10 5 -10 10 0 6 5 10 10 10 6 0 10
-4 10 -10z m200 -250 c0 -11 -4 -20 -10 -20 -5 0 -10 9 -10 20 0 11 5 20 10
20 6 0 10 -9 10 -20z m25 -79 c3 -5 1 -12 -5 -16 -5 -3 -10 1 -10 9 0 18 6 21
15 7z m-515 -345 c0 -11 -19 -15 -25 -6 -3 5 1 10 9 10 9 0 16 -2 16 -4z m448
-127 c4 -19 -19 -31 -38 -19 -18 11 -4 42 17 38 10 -2 19 -10 21 -19z m63 8
c-1 -12 -15 -9 -19 4 -3 6 1 10 8 8 6 -3 11 -8 11 -12z m-191 -67 c0 -5 -4
-10 -10 -10 -5 0 -10 5 -10 10 0 6 5 10 10 10 6 0 10 -4 10 -10z m58 -122 c-7
-19 -38 -22 -38 -4 0 10 9 16 21 16 12 0 19 -5 17 -12z m-240 -95 c6 -19 -28
-29 -39 -12 -5 8 -9 18 -9 22 0 13 43 3 48 -10z m912 -218 c0 -12 -40 -48 -47
-42 -3 4 2 16 13 26 19 19 34 26 34 16z m-576 -91 c18 -18 21 -60 5 -70 -14
-8 -58 44 -59 69 0 22 33 23 54 1z m337 -97 c-1 -12 -15 -9 -19 4 -3 6 1 10 8
8 6 -3 11 -8 11 -12z m-346 -36 c3 -5 1 -12 -5 -16 -5 -3 -10 1 -10 9 0 18 6
21 15 7z m566 -14 c-1 -12 -15 -9 -19 4 -3 6 1 10 8 8 6 -3 11 -8 11 -12z
m-741 -17 c0 -11 -4 -20 -10 -20 -5 0 -10 9 -10 20 0 11 5 20 10 20 6 0 10 -9
10 -20z m510 -155 c0 -9 -7 -18 -16 -22 -18 -7 -39 11 -30 26 11 17 46 13 46
-4z m-445 -44 c-10 -16 -25 -3 -25 22 0 20 1 20 16 5 9 -9 13 -21 9 -27z m515
-86 c0 -15 -26 -32 -36 -23 -2 3 -2 13 2 22 8 20 34 21 34 1z m-310 -25 c0
-11 -6 -20 -14 -20 -18 0 -29 16 -21 30 11 18 35 11 35 -10z m198 3 c-4 -22
-48 -31 -48 -10 0 19 10 27 32 27 13 0 18 -6 16 -17z m-138 -63 c0 -5 -4 -10
-10 -10 -5 0 -10 5 -10 10 0 6 5 10 10 10 6 0 10 -4 10 -10z m95 -10 c14 -15
16 -23 7 -32 -14 -14 -62 15 -62 37 0 22 34 18 55 -5z m250 -20 c9 -15 -4 -50
-19 -50 -20 0 -39 27 -32 45 6 17 42 20 51 5z m-77 -42 c-6 -18 -28 -21 -28
-4 0 9 7 16 16 16 9 0 14 -5 12 -12z m-482 -19 c9 -16 -12 -33 -31 -25 -14 5
-15 9 -5 21 15 18 26 19 36 4z m132 -6 c-4 -22 -48 -31 -48 -10 0 19 10 27 32
27 13 0 18 -6 16 -17z m176 8 c3 -5 -1 -11 -9 -15 -15 -6 -29 7 -18 18 9 9 21
8 27 -3z m276 -7 c11 -12 10 -18 -3 -32 -21 -21 -42 -3 -32 27 8 25 18 27 35
5z m357 -43 c-24 -29 -25 -29 -30 -9 -4 14 1 27 16 39 33 27 44 5 14 -30z
m-729 -15 c4 -18 -14 -46 -29 -46 -11 0 -12 54 -2 64 11 10 28 1 31 -18z m452
-12 c0 -9 -5 -14 -12 -12 -18 6 -21 28 -4 28 9 0 16 -7 16 -16z m116 -21 c-3
-3 -17 -2 -32 1 -28 8 -23 21 11 28 19 3 34 -17 21 -29z m-488 -4 c3 -32 -12
-53 -32 -46 -19 7 -21 48 -4 65 17 17 33 9 36 -19z m83 9 c2 -27 -4 -64 -13
-82 -10 -18 -12 -18 -23 -3 -7 9 -17 17 -24 17 -6 0 -11 9 -11 21 0 35 68 79
71 47z m316 -24 c-3 -3 -12 -4 -19 -1 -8 3 -5 6 6 6 11 1 17 -2 13 -5z m-282
-54 c-3 -5 -13 -10 -21 -10 -8 0 -14 5 -14 10 0 6 9 10 21 10 11 0 17 -4 14
-10z m-270 -20 c0 -8 -8 -16 -17 -18 -13 -2 -18 3 -18 18 0 15 5 20 18 18 9
-2 17 -10 17 -18z m495 16 c0 -3 -4 -8 -10 -11 -5 -3 -10 -1 -10 4 0 6 5 11
10 11 6 0 10 -2 10 -4z"/>
<path d="M5375 6500 c-4 -14 -20 -52 -36 -85 -46 -100 -420 -946 -440 -997
-10 -26 -23 -55 -28 -65 -5 -10 -19 -38 -30 -63 -11 -25 -36 -81 -56 -125 -21
-44 -43 -96 -50 -116 -7 -20 -22 -54 -34 -77 -12 -23 -21 -46 -21 -53 0 -8 35
-9 133 -4 72 5 186 7 252 6 66 -1 215 -1 330 0 116 1 221 2 235 1 14 0 123 -4
244 -8 l218 -7 -6 24 c-4 13 -18 47 -30 74 -13 28 -30 66 -39 85 -30 69 -59
136 -77 175 -10 22 -32 72 -48 110 -27 63 -34 70 -61 73 -18 2 -35 11 -41 23
-6 10 -9 19 -8 20 2 0 11 2 21 4 29 5 31 12 14 47 -8 18 -23 51 -32 73 -10 22
-26 58 -35 80 -10 22 -55 123 -100 225 -45 102 -92 208 -105 235 -13 28 -35
79 -50 115 -24 58 -57 131 -99 225 l-13 30 -8 -25z m88 -267 c9 -9 -13 -34
-24 -27 -14 8 -11 34 4 34 8 0 17 -3 20 -7z m-230 -227 c7 -18 -1 -26 -25 -26
-18 0 -25 20 -11 33 11 12 31 8 36 -7z m175 -9 c2 -11 -3 -17 -16 -17 -24 0
-32 8 -25 26 7 20 37 13 41 -9z m-88 -27 c0 -5 -9 -10 -20 -10 -11 0 -20 5
-20 10 0 6 9 10 20 10 11 0 20 -4 20 -10z m0 -180 c0 -13 -7 -20 -20 -20 -13
0 -20 7 -20 20 0 13 7 20 20 20 13 0 20 -7 20 -20z m-52 -71 c-2 -6 -8 -10
-13 -10 -5 0 -11 4 -13 10 -2 6 4 11 13 11 9 0 15 -5 13 -11z m90 0 c-2 -6 -8
-10 -13 -10 -5 0 -11 4 -13 10 -2 6 4 11 13 11 9 0 15 -5 13 -11z m-198 -20
c0 -5 -7 -9 -15 -9 -15 0 -20 12 -9 23 8 8 24 -1 24 -14z m301 -2 c-13 -13
-26 -3 -16 12 3 6 11 8 17 5 6 -4 6 -10 -1 -17z m-131 -116 c0 -15 -49 -19
-54 -5 -4 10 3 14 24 14 17 0 30 -4 30 -9z m205 -62 c0 -7 -8 -15 -17 -17 -18
-3 -25 18 -11 32 10 10 28 1 28 -15z m-440 2 c7 -12 -12 -24 -25 -16 -11 7 -4
25 10 25 5 0 11 -4 15 -9z m163 -94 c2 -12 -3 -17 -17 -17 -12 0 -21 6 -21 13
0 31 32 34 38 4z m120 0 c2 -12 -3 -17 -17 -17 -12 0 -21 6 -21 13 0 31 32 34
38 4z m-357 -23 c11 -13 8 -19 -17 -39 -36 -29 -52 -18 -34 24 14 34 31 39 51
15z m299 6 c0 -5 -6 -10 -14 -10 -8 0 -18 5 -21 10 -3 6 3 10 14 10 12 0 21
-4 21 -10z m314 -28 c12 -43 4 -48 -33 -21 -33 24 -39 44 -18 52 25 11 42 1
51 -31z m116 4 c0 -3 -4 -8 -10 -11 -5 -3 -10 -1 -10 4 0 6 5 11 10 11 6 0 10
-2 10 -4z m-655 -116 c0 -8 -8 -16 -17 -18 -13 -2 -18 3 -18 18 0 15 5 20 18
18 9 -2 17 -10 17 -18z m449 5 c3 -9 -1 -18 -10 -22 -19 -7 -39 11 -30 26 10
16 33 13 40 -4z m-226 -93 c3 -37 1 -42 -17 -42 -18 0 -21 6 -21 38 0 68 33
71 38 4z m-61 -48 c8 -20 -13 -42 -27 -28 -12 12 -3 44 11 44 5 0 12 -7 16
-16z m117 0 c8 -22 8 -22 -14 -34 -19 -10 -20 -9 -16 17 6 35 4 33 15 33 5 0
12 -7 15 -16z m-106 -132 c3 -9 -2 -13 -14 -10 -9 1 -19 9 -22 16 -3 9 2 13
14 10 9 -1 19 -9 22 -16z m102 8 c0 -12 -28 -25 -36 -17 -9 9 6 27 22 27 8 0
14 -5 14 -10z m-253 -13 c4 -8 16 -16 26 -20 9 -3 17 -16 17 -27 0 -23 -18
-27 -26 -6 -3 8 -19 18 -35 21 -31 7 -44 19 -34 35 9 14 43 12 52 -3z m421 -4
c2 -7 -8 -17 -23 -23 -15 -6 -33 -17 -41 -25 -17 -17 -34 -20 -34 -6 0 20 13
41 25 41 7 0 16 7 19 16 7 18 47 16 54 -3z m-324 -12 c3 -4 -1 -17 -9 -27 -14
-18 -14 -18 -15 9 0 26 13 36 24 18z m196 -17 c0 -28 -15 -25 -23 6 -3 13 0
20 9 20 8 0 14 -10 14 -26z m-90 -10 c0 -8 -9 -14 -20 -14 -13 0 -20 7 -20 19
0 14 5 18 20 14 11 -3 20 -12 20 -19z"/>
<path d="M5933 4443 c-308 -3 -353 -5 -353 -18 0 -9 -7 -18 -15 -21 -8 -4 -15
-12 -15 -19 0 -7 -6 -18 -14 -24 -11 -9 -17 -8 -28 6 -7 10 -25 24 -40 30 -16
7 -28 19 -28 28 0 11 -10 15 -35 15 -24 0 -35 -5 -35 -15 0 -8 5 -15 10 -15 6
0 10 -4 10 -10 0 -17 -20 -11 -46 15 -24 24 -74 35 -74 16 0 -5 -12 -16 -26
-26 -19 -12 -29 -14 -37 -6 -8 8 -6 11 6 11 9 0 17 7 17 15 0 10 -11 15 -35
15 -25 0 -35 -4 -35 -15 0 -9 -12 -21 -27 -28 -16 -6 -33 -18 -39 -26 -13 -17
-44 -8 -44 13 0 7 -7 16 -15 20 -8 3 -15 12 -15 21 0 13 -35 15 -278 15 l-278
0 -27 -62 c-32 -75 -32 -78 -8 -71 23 6 35 -21 21 -48 -13 -23 -38 -25 -46 -4
-7 18 -24 20 -24 4 0 -6 -40 -102 -90 -213 -49 -112 -90 -210 -90 -218 0 -9
-4 -18 -9 -20 -4 -1 -27 -46 -50 -98 -24 -52 -51 -113 -61 -135 -11 -22 -33
-74 -51 -115 -17 -41 -46 -106 -64 -145 -50 -108 -75 -167 -75 -176 0 -13
2670 -11 2686 2 8 7 14 7 19 -1 4 -6 59 -10 146 -10 147 0 155 3 125 45 -7 11
-19 38 -26 60 -7 22 -16 45 -20 50 -4 6 -31 64 -60 130 -77 178 -91 206 -106
212 -8 3 -13 15 -12 28 3 33 -31 102 -54 108 -14 4 -17 11 -13 30 9 35 -32
127 -56 127 -12 0 -19 7 -19 20 0 11 4 20 9 20 9 0 -9 44 -80 197 -16 34 -29
65 -29 68 0 4 -11 30 -24 58 -14 29 -36 78 -50 110 -14 31 -29 56 -33 55 -4
-2 -167 -4 -360 -5z m-623 -73 c0 -19 -11 -26 -23 -14 -8 8 3 34 14 34 5 0 9
-9 9 -20z m-480 -40 c0 -23 -4 -30 -20 -30 -11 0 -23 7 -26 15 -9 23 3 45 26
45 16 0 20 -7 20 -30z m990 5 c0 -24 -31 -51 -44 -38 -3 3 -6 19 -6 35 0 23 4
28 25 28 20 0 25 -5 25 -25z m-1265 -18 c-11 -6 -21 -5 -28 2 -17 17 12 34 31
19 11 -10 10 -13 -3 -21z m1523 11 c-3 -7 -11 -13 -18 -13 -7 0 -15 6 -17 13
-3 7 4 12 17 12 13 0 20 -5 18 -12z m106 -24 c10 -4 16 -18 16 -36 0 -24 -4
-29 -21 -26 -27 4 -44 30 -36 52 7 17 16 20 41 10z m-124 -45 c0 -11 -27 -12
-34 0 -3 4 -3 11 0 14 8 8 34 -3 34 -14z m-1488 -1 c-9 -9 -15 -9 -24 0 -9 9
-7 12 12 12 19 0 21 -3 12 -12z m1258 8 c0 -3 -4 -8 -10 -11 -5 -3 -10 -1 -10
4 0 6 5 11 10 11 6 0 10 -2 10 -4z m123 -20 c25 -8 21 -23 -8 -30 -33 -8 -45
-1 -43 28 2 18 6 22 18 16 8 -5 23 -11 33 -14z m-1265 -31 c-2 -2 -16 -1 -31
2 -33 6 -31 25 4 33 18 5 25 2 27 -13 2 -10 2 -20 0 -22z m-207 -6 c-13 -11
-27 -17 -30 -14 -3 4 5 15 19 25 32 24 42 14 11 -11z m1657 10 c12 -11 20 -24
17 -30 -4 -5 0 -9 8 -9 8 0 17 -11 19 -25 6 -31 -8 -43 -15 -14 -4 13 -10 18
-18 13 -8 -4 -10 -3 -5 4 4 7 2 12 -4 12 -6 0 -15 11 -20 25 -5 14 -14 25 -20
25 -6 0 -8 5 -5 10 9 15 19 12 43 -11z m-1550 -23 c5 -22 -13 -36 -45 -36 -25
0 -28 11 -12 41 13 25 52 22 57 -5z m176 -1 c18 -28 21 -55 5 -55 -6 0 -19
-10 -29 -22 -18 -22 -18 -23 -39 -4 -27 24 -27 46 -1 46 16 0 20 7 20 30 0 37
21 40 44 5z m296 17 c0 -13 -12 -22 -22 -16 -10 6 -1 24 13 24 5 0 9 -4 9 -8z
m501 -5 c-1 -12 -15 -9 -19 4 -3 6 1 10 8 8 6 -3 11 -8 11 -12z m319 -18 c0
-28 3 -31 24 -27 23 5 23 4 11 -26 -16 -38 -40 -44 -57 -17 -7 12 -18 21 -25
21 -18 0 -16 26 3 55 23 35 44 32 44 -6z m190 12 c16 -30 12 -41 -14 -41 -34
0 -61 27 -45 46 16 20 47 17 59 -5z m308 8 c-2 -6 -8 -10 -13 -10 -5 0 -11 4
-13 10 -2 6 4 11 13 11 9 0 15 -5 13 -11z m-398 -20 c0 -5 -9 -9 -20 -9 -22 0
-27 16 -7 23 15 5 27 -1 27 -14z m-1320 1 c0 -5 -9 -10 -20 -10 -11 0 -20 5
-20 10 0 6 9 10 20 10 11 0 20 -4 20 -10z m-210 -34 c0 -14 -24 -29 -33 -19
-3 3 -3 11 0 19 7 18 33 18 33 0z m710 -27 c0 -17 -5 -19 -41 -15 -22 2 -44 7
-47 11 -8 8 19 25 30 19 4 -3 16 -1 25 5 22 12 33 5 33 -20z m314 24 c4 -5 18
-8 29 -8 13 0 22 -6 22 -14 0 -10 -13 -16 -42 -18 -36 -2 -43 0 -43 15 0 28
18 41 34 25z m-156 -61 c3 -27 0 -32 -17 -32 -16 0 -21 6 -21 28 0 53 33 56
38 4z m-693 -2 c0 -8 -10 -16 -22 -18 -18 -3 -23 2 -23 18 0 16 5 21 23 18 12
-2 22 -10 22 -18z m165 10 c0 -5 -5 -10 -11 -10 -5 0 -7 5 -4 10 3 6 8 10 11
10 2 0 4 -4 4 -10z m1044 1 c3 -5 -1 -11 -9 -15 -9 -3 -15 0 -15 9 0 16 16 20
24 6z m186 -12 c0 -15 -5 -20 -22 -17 -34 5 -37 38 -4 38 20 0 26 -5 26 -21z
m-863 -45 c-9 -9 -28 6 -21 18 4 6 10 6 17 -1 6 -6 8 -13 4 -17z m304 3 c-13
-13 -26 -3 -16 12 3 6 11 8 17 5 6 -4 6 -10 -1 -17z m-663 -20 c2 -12 -3 -17
-17 -17 -12 0 -21 6 -21 13 0 31 32 34 38 4z m1042 3 c0 -13 -7 -20 -18 -20
-26 0 -34 11 -21 27 17 20 39 16 39 -7z m-932 -93 c2 -11 -3 -17 -17 -17 -23
0 -35 15 -26 31 10 15 39 6 43 -14z m827 3 c0 -8 -10 -16 -22 -18 -22 -3 -32
16 -16 32 12 11 38 2 38 -14z m-75 -50 c0 -5 -5 -10 -11 -10 -5 0 -7 5 -4 10
3 6 8 10 11 10 2 0 4 -4 4 -10z m490 0 c0 -5 -7 -10 -16 -10 -8 0 -12 5 -9 10
3 6 10 10 16 10 5 0 9 -4 9 -10z m290 -4 c0 -8 -4 -18 -10 -21 -5 -3 -10 -17
-10 -31 0 -13 -4 -24 -10 -24 -5 0 -10 20 -10 45 0 38 3 45 20 45 11 0 20 -6
20 -14z m-2016 -37 c13 -12 3 -20 -30 -22 -24 -2 -30 2 -32 22 -3 21 -1 23 25
17 15 -4 32 -12 37 -17z m1821 11 c9 -14 -13 -40 -34 -40 -10 0 -26 6 -37 14
-18 14 -18 15 6 25 33 13 57 13 65 1z m-1295 -39 c14 -36 7 -51 -25 -51 -28 0
-38 22 -25 55 13 34 35 32 50 -4z m750 3 c14 -35 13 -42 -9 -53 -13 -7 -24 -6
-36 3 -16 12 -17 17 -6 45 16 38 38 40 51 5z m-1120 -69 c0 -8 -7 -15 -15 -15
-8 0 -15 7 -15 15 0 8 7 15 15 15 8 0 15 -7 15 -15z m1470 0 c0 -8 -7 -15 -15
-15 -8 0 -15 7 -15 15 0 8 7 15 15 15 8 0 15 -7 15 -15z m55 -65 c3 -5 1 -10
-4 -10 -6 0 -11 5 -11 10 0 6 2 10 4 10 3 0 8 -4 11 -10z m-1475 -40 c0 -5 -9
-10 -20 -10 -11 0 -20 5 -20 10 0 6 9 10 20 10 11 0 20 -4 20 -10z m1380 0 c0
-5 -9 -10 -20 -10 -11 0 -20 5 -20 10 0 6 9 10 20 10 11 0 20 -4 20 -10z
m-1550 -50 c0 -11 -6 -20 -14 -20 -18 0 -29 16 -21 30 11 18 35 11 35 -10z
m1715 0 c0 -8 -8 -16 -17 -18 -13 -2 -18 3 -18 18 0 15 5 20 18 18 9 -2 17
-10 17 -18z m-1855 -54 c0 -7 -7 -19 -15 -26 -19 -16 -41 1 -32 24 8 20 47 21
47 2z m2007 -2 c9 -23 -13 -40 -32 -24 -8 7 -15 19 -15 26 0 19 39 18 47 -2z
m-2032 -71 c28 -32 32 -53 11 -53 -8 0 -22 14 -30 32 -28 54 -19 64 19 21z
m2045 19 c0 -21 -33 -72 -46 -72 -20 0 -17 16 8 50 21 29 38 39 38 22z m-2249
-52 c38 -21 11 -58 -32 -45 -30 10 -24 46 9 54 2 1 12 -4 23 -9z m364 -1 c10
-15 -1 -23 -20 -15 -9 3 -13 10 -10 16 8 13 22 13 30 -1z m1723 -7 c2 -7 -6
-12 -17 -12 -21 0 -27 11 -14 24 9 9 26 2 31 -12z m380 -6 c4 -20 -13 -36 -41
-36 -23 0 -33 26 -16 46 16 20 53 14 57 -10z m102 -11 c0 -9 -7 -18 -16 -22
-18 -7 -39 11 -30 26 11 17 46 13 46 -4z m-2664 -212 c-11 -11 -19 6 -11 24 8
17 8 17 12 0 3 -10 2 -21 -1 -24z m2624 17 c0 -11 -4 -20 -10 -20 -5 0 -10 9
-10 20 0 11 5 20 10 20 6 0 10 -9 10 -20z m-60 -30 c0 -5 -4 -10 -10 -10 -5 0
-10 5 -10 10 0 6 5 10 10 10 6 0 10 -4 10 -10z"/>
<path d="M6820 4442 c0 -9 28 -75 70 -167 10 -22 28 -65 41 -95 13 -30 33 -71
44 -90 12 -19 20 -40 18 -47 -2 -6 5 -17 15 -25 11 -7 20 -24 20 -38 0 -14 12
-51 27 -82 19 -42 32 -58 46 -58 17 0 19 -5 14 -32 -5 -27 10 -68 79 -223 79
-178 86 -190 109 -187 33 3 48 -35 22 -54 -16 -12 -15 -20 25 -114 l42 -100
188 0 c154 0 190 3 200 15 7 8 18 15 25 15 7 0 15 -7 19 -15 5 -13 53 -15 351
-15 190 0 345 2 345 5 0 2 -24 57 -54 122 -30 65 -125 278 -211 473 -87 195
-167 378 -180 405 -12 28 -34 75 -48 106 -22 51 -27 56 -51 52 -45 -9 -47 34
-2 50 4 1 -2 25 -15 52 l-24 50 -256 3 c-250 2 -257 2 -262 -18 -6 -23 -47
-28 -47 -6 0 17 -79 27 -160 21 -30 -2 -83 -4 -117 -5 -70 0 -77 -10 -49 -67
32 -64 38 -82 32 -92 -10 -16 -26 -13 -33 7 -4 9 -16 24 -26 33 -19 15 -19 17
-2 42 17 26 17 27 -9 37 -14 5 -26 16 -26 25 0 9 -9 15 -22 15 -13 1 -49 3
-80 6 -35 4 -58 2 -58 -4z m145 -87 c0 -14 -6 -19 -20 -18 -11 1 -23 -3 -26
-9 -9 -15 -39 -2 -39 17 0 8 9 15 19 15 11 0 23 5 26 11 11 17 40 5 40 -16z
m35 -75 c0 -13 -7 -20 -20 -20 -13 0 -20 7 -20 20 0 13 7 20 20 20 13 0 20 -7
20 -20z m5 -66 c12 -19 14 -29 6 -37 -14 -14 -27 -1 -36 36 -9 35 7 35 30 1z
m730 -39 c0 -31 -49 -28 -53 3 -3 20 0 23 25 20 20 -2 28 -8 28 -23z m-547
-47 c-6 -18 -28 -21 -28 -4 0 9 7 16 16 16 9 0 14 -5 12 -12z m877 -13 c0 -28
-29 -25 -33 3 -3 19 0 23 15 20 10 -2 18 -12 18 -23z m-695 -55 c0 -26 -25
-36 -45 -20 -12 10 -13 16 -4 26 18 22 49 17 49 -6z m-339 -13 c-13 -13 -26
-3 -16 12 3 6 11 8 17 5 6 -4 6 -10 -1 -17z m649 3 c0 -5 -4 -10 -10 -10 -5 0
-10 5 -10 10 0 6 5 10 10 10 6 0 10 -4 10 -10z m-200 -4 c0 -3 -4 -8 -10 -11
-5 -3 -10 -1 -10 4 0 6 5 11 10 11 6 0 10 -2 10 -4z m195 -41 c0 -22 -31 -33
-48 -16 -7 7 -6 15 3 26 17 21 45 15 45 -10z m355 5 c0 -5 -7 -10 -15 -10 -8
0 -15 5 -15 10 0 6 7 10 15 10 8 0 15 -4 15 -10z m-565 -30 c3 -5 -1 -10 -10
-10 -9 0 -13 5 -10 10 3 6 8 10 10 10 2 0 7 -4 10 -10z m15 -79 c0 -3 -9 -21
-20 -38 -20 -33 -50 -37 -50 -7 0 17 21 56 35 66 9 7 35 -8 35 -21z m-307
-136 c1 -5 -6 -11 -15 -13 -11 -2 -18 3 -18 13 0 17 30 18 33 0z m781 -122 c8
-20 -1 -33 -25 -33 -24 0 -35 25 -19 45 13 16 36 10 44 -12z m-91 -77 c11 -28
-31 -46 -62 -27 -12 8 -12 12 -2 25 16 20 57 21 64 2z"/>
<path d="M5085 4420 c-10 -11 -13 -20 -7 -20 6 0 15 6 19 14 4 7 15 16 23 19
13 5 13 6 -1 6 -9 1 -24 -8 -34 -19z"/>
<path d="M5480 4433 c8 -3 19 -12 23 -19 4 -8 13 -14 19 -14 6 0 3 9 -7 20
-10 11 -25 20 -34 19 -14 0 -14 -1 -1 -6z"/>
<path d="M9120 5430 c0 -5 5 -10 10 -10 6 0 10 5 10 10 0 6 -4 10 -10 10 -5 0
-10 -4 -10 -10z"/>
<path d="M5017 1533 c-4 -3 -7 -15 -7 -25 0 -26 24 -17 28 10 3 21 -8 29 -21
15z"/>
<path d="M1817 1183 c-13 -12 -7 -33 8 -33 8 0 15 9 15 20 0 20 -11 26 -23 13z"/>
<path d="M1810 1110 c0 -11 7 -20 15 -20 8 0 15 9 15 20 0 11 -7 20 -15 20 -8
0 -15 -9 -15 -20z"/>
<path d="M1810 1044 c0 -31 23 -28 28 4 2 15 -2 22 -12 22 -11 0 -16 -9 -16
-26z"/>
</g>
</svg>
